<?xml version="1.0" encoding="UTF-8" standalone="no"?>
<!-- Created with Inkscape (http://www.inkscape.org/) -->

<svg
   xmlns:dc="http://purl.org/dc/elements/1.1/"
   xmlns:cc="http://creativecommons.org/ns#"
   xmlns:rdf="http://www.w3.org/1999/02/22-rdf-syntax-ns#"
   xmlns:svg="http://www.w3.org/2000/svg"
   xmlns="http://www.w3.org/2000/svg"
   xmlns:sodipodi="http://sodipodi.sourceforge.net/DTD/sodipodi-0.dtd"
   xmlns:inkscape="http://www.inkscape.org/namespaces/inkscape"
   version="1.1"
   width="256"
   height="256"
   id="svg2985"
   inkscape:version="0.48.4 r9939"
   sodipodi:docname="icon-info.svg">
  <sodipodi:namedview
     pagecolor="#ffffff"
     bordercolor="#666666"
     borderopacity="1"
     objecttolerance="10"
     gridtolerance="10"
     guidetolerance="10"
     inkscape:pageopacity="0"
     inkscape:pageshadow="2"
     inkscape:window-width="1366"
     inkscape:window-height="706"
     id="namedview46"
     showgrid="true"
     inkscape:snap-bbox="true"
     inkscape:zoom="2.6074562"
     inkscape:cx="36.237771"
     inkscape:cy="125.70632"
     inkscape:window-x="-8"
     inkscape:window-y="-8"
     inkscape:window-maximized="1"
     inkscape:current-layer="svg2985">
    <inkscape:grid
       type="xygrid"
       id="grid3792"
       empspacing="4"
       visible="true"
       enabled="true"
       snapvisiblegridlinesonly="true" />
  </sodipodi:namedview>
  <defs
     id="defs2987" />
  <metadata
     id="metadata2990">
    <rdf:RDF>
      <cc:Work
         rdf:about="">
        <dc:format>image/svg+xml</dc:format>
        <dc:type
           rdf:resource="http://purl.org/dc/dcmitype/StillImage" />
        <dc:title />
      </cc:Work>
    </rdf:RDF>
  </metadata>
  <path
     style="fill:#8aa5b7;fill-opacity:1;stroke:none"
     d="M 128,24 C 70.562382,24 24,70.562382 24,128 24,185.43762 70.562382,232 128,232 185.43762,232 232,185.43762 232,128 232,70.562382 185.43762,24 128,24 z m 16,40 0,16 c 0,8 -32,8 -32,0 l 0,-16 c 0,-8 32,-8 32,0 z m 0,48 0,76 c 0,8 -32,8 -32,0 l 0,-76 c 0,-8 32,-8 32,0 z"
     id="path2985"
     inkscape:connector-curvature="0"
     sodipodi:nodetypes="ssssscsscccsscc" />
</svg>
