<?xml version="1.0" encoding="UTF-8" standalone="no"?>
<!-- Created with Inkscape (http://www.inkscape.org/) -->

<svg
   xmlns:dc="http://purl.org/dc/elements/1.1/"
   xmlns:cc="http://creativecommons.org/ns#"
   xmlns:rdf="http://www.w3.org/1999/02/22-rdf-syntax-ns#"
   xmlns:svg="http://www.w3.org/2000/svg"
   xmlns="http://www.w3.org/2000/svg"
   xmlns:sodipodi="http://sodipodi.sourceforge.net/DTD/sodipodi-0.dtd"
   xmlns:inkscape="http://www.inkscape.org/namespaces/inkscape"
   version="1.1"
   width="256"
   height="256"
   id="svg2985"
   inkscape:version="0.48.4 r9939"
   sodipodi:docname="icon-cross.svg">
  <sodipodi:namedview
     pagecolor="#ffffff"
     bordercolor="#666666"
     borderopacity="1"
     objecttolerance="10"
     gridtolerance="10"
     guidetolerance="10"
     inkscape:pageopacity="0"
     inkscape:pageshadow="2"
     inkscape:window-width="1366"
     inkscape:window-height="706"
     id="namedview46"
     showgrid="false"
     inkscape:snap-bbox="true"
     inkscape:zoom="1.4142136"
     inkscape:cx="192.14998"
     inkscape:cy="92.045219"
     inkscape:window-x="-8"
     inkscape:window-y="-8"
     inkscape:window-maximized="1"
     inkscape:current-layer="svg2985"
     inkscape:object-nodes="true">
    <inkscape:grid
       type="xygrid"
       id="grid3792"
       empspacing="4"
       visible="true"
       enabled="true"
       snapvisiblegridlinesonly="true" />
  </sodipodi:namedview>
  <defs
     id="defs2987" />
  <metadata
     id="metadata2990">
    <rdf:RDF>
      <cc:Work
         rdf:about="">
        <dc:format>image/svg+xml</dc:format>
        <dc:type
           rdf:resource="http://purl.org/dc/dcmitype/StillImage" />
        <dc:title />
      </cc:Work>
    </rdf:RDF>
  </metadata>
  <path
     style="fill:#ef2929;fill-opacity:1;stroke:none"
     d="M 64,31.5 C 59.5,31.5 55,33 52,36 L 36,52 c -6,6 -6,18 0,24 l 52,52 -52,52 c -6,6 -6,18 0,24 l 16,16 c 6,6 18,6 24,0 l 52,-52 52,52 c 6,6 18,6 24,0 l 16,-16 c 6,-6 6,-18 0,-24 l -52,-52 52,-52 c 6,-6 6,-18 0,-24 L 204,36 c -3,-3 -7.5,-4.5 -12,-4.5 -4.5,0 -9,1.5 -12,4.5 L 128,88 76,36 C 73,33 68.5,31.5 64,31.5 z"
     id="path3001"
     inkscape:connector-curvature="0" />
</svg>
