<?xml version="1.0" encoding="UTF-8" standalone="no"?>
<!-- Created with Inkscape (http://www.inkscape.org/) -->

<svg
   xmlns:dc="http://purl.org/dc/elements/1.1/"
   xmlns:cc="http://creativecommons.org/ns#"
   xmlns:rdf="http://www.w3.org/1999/02/22-rdf-syntax-ns#"
   xmlns:svg="http://www.w3.org/2000/svg"
   xmlns="http://www.w3.org/2000/svg"
   xmlns:sodipodi="http://sodipodi.sourceforge.net/DTD/sodipodi-0.dtd"
   xmlns:inkscape="http://www.inkscape.org/namespaces/inkscape"
   version="1.1"
   width="256"
   height="256"
   id="svg2985"
   inkscape:version="0.48.4 r9939"
   sodipodi:docname="icon-note.svg">
  <sodipodi:namedview
     pagecolor="#ffffff"
     bordercolor="#666666"
     borderopacity="1"
     objecttolerance="10"
     gridtolerance="10"
     guidetolerance="10"
     inkscape:pageopacity="0"
     inkscape:pageshadow="2"
     inkscape:window-width="1366"
     inkscape:window-height="706"
     id="namedview46"
     showgrid="true"
     inkscape:snap-bbox="true"
     inkscape:zoom="1.4142136"
     inkscape:cx="125.28804"
     inkscape:cy="149.11257"
     inkscape:window-x="-8"
     inkscape:window-y="-8"
     inkscape:window-maximized="1"
     inkscape:current-layer="svg2985">
    <inkscape:grid
       type="xygrid"
       id="grid3792"
       empspacing="4"
       visible="true"
       enabled="true"
       snapvisiblegridlinesonly="true" />
  </sodipodi:namedview>
  <defs
     id="defs2987" />
  <metadata
     id="metadata2990">
    <rdf:RDF>
      <cc:Work
         rdf:about="">
        <dc:format>image/svg+xml</dc:format>
        <dc:type
           rdf:resource="http://purl.org/dc/dcmitype/StillImage" />
        <dc:title />
      </cc:Work>
    </rdf:RDF>
  </metadata>
  <path
     style="fill:#ceb17f;fill-opacity:1;stroke:none"
     d="M 52 32 C 44 32 32 44 32 52 L 32 204 C 32 212 44 224 52 224 L 156 224 C 164 224 168 220 176 212 L 212 176 C 220 168 224 164 224 156 L 224 52 C 224 44 212 32 204 32 L 52 32 z M 64 48 L 192 48 C 200.83656 48 208 55.16344 208 64 L 208 156 L 176 156 C 168 156 156 168 156 176 L 156 208 L 64 208 C 55.16344 208 48 200.83656 48 192 L 48 64 C 48 55.16344 55.16344 48 64 48 z M 72 72 C 64 72 64 100 72 100 L 184 100 C 192 100 192 72 184 72 L 72 72 z M 72 120 C 64 120 64 148 72 148 L 128 148 C 136 148 136 120 128 120 L 72 120 z "
     id="rect2983-1" />
</svg>
