<svg xmlns="http://www.w3.org/2000/svg" height="96" width="96"><path fill="#AAA" d="M47.9 0C21.8 0 .4 21 0 47.2c.435-18.2 14.5-33 32.3-34.8.015-.003.032.004.047 0 11-2.13 21.4 6.96 21.6 16.8.056 3.68-1.46 6.58-1.48 9.77 0 4.76 3.72 8.68 8.39 9.01 11.3-.4 18.8-11 16.9-21.4-.4-4.5 4.9-7.3 7.8-3.7 6.3 6.2 10.3 14.7 10.5 24.3-.4-26.1-21.7-47.2-47.9-47.2zM30.6 48.6c-8.7 2.8-14 11.9-12.3 20.7.6 4.7-4.9 7.3-7.8 3.9C4.2 67.2.3 58.6 0 49.2.506 75.1 21.8 96 47.9 96c26.2 0 47.5-20.9 47.9-47.2-.5 18.8-15.3 34-34 35-10.2.8-19.4-6.9-19.8-17.1-.1-2.4.4-5.1 1.1-7.2 1.6-8.4-5.6-12.8-12.5-10.8z"/></svg>