<?xml version="1.0" encoding="UTF-8" standalone="no"?>
<!-- Created with Inkscape (http://www.inkscape.org/) -->

<svg
   xmlns:dc="http://purl.org/dc/elements/1.1/"
   xmlns:cc="http://creativecommons.org/ns#"
   xmlns:rdf="http://www.w3.org/1999/02/22-rdf-syntax-ns#"
   xmlns:svg="http://www.w3.org/2000/svg"
   xmlns="http://www.w3.org/2000/svg"
   xmlns:xlink="http://www.w3.org/1999/xlink"
   version="1.1"
   width="256"
   height="256"
   id="svg2985">
  <defs
     id="defs2987">
    <linearGradient
       id="linearGradient4353">
      <stop
         id="stop4355"
         style="stop-color:#e1e379;stop-opacity:1"
         offset="0" />
      <stop
         id="stop4363"
         style="stop-color:#69c225;stop-opacity:1"
         offset="0.57828122" />
      <stop
         id="stop4357"
         style="stop-color:#067f07;stop-opacity:1"
         offset="1" />
    </linearGradient>
    <linearGradient
       id="linearGradient4345">
      <stop
         id="stop4347"
         style="stop-color:#b2e1ef;stop-opacity:1"
         offset="0" />
      <stop
         id="stop4349"
         style="stop-color:#2d6c9c;stop-opacity:1"
         offset="1" />
    </linearGradient>
    <linearGradient
       id="linearGradient4336">
      <stop
         id="stop4338"
         style="stop-color:#aee2f1;stop-opacity:1"
         offset="0" />
      <stop
         id="stop4340"
         style="stop-color:#388cba;stop-opacity:1"
         offset="1" />
    </linearGradient>
    <radialGradient
       cx="116.63054"
       cy="-95.844521"
       r="80"
       fx="116.63054"
       fy="-95.844521"
       id="radialGradient4342"
       xlink:href="#linearGradient4336"
       gradientUnits="userSpaceOnUse"
       gradientTransform="matrix(0.57256802,1.3914486,-1.1587956,0.47683354,-466.65078,-436.06092)" />
    <radialGradient
       cx="126.13193"
       cy="74.774399"
       r="128"
       fx="126.13193"
       fy="74.774399"
       id="radialGradient4351"
       xlink:href="#linearGradient4345"
       gradientUnits="userSpaceOnUse"
       gradientTransform="matrix(0.58038233,0.83676208,-0.74038635,0.51353571,-302.83224,-458.06159)" />
    <radialGradient
       cx="111.81818"
       cy="102.18182"
       r="120"
       fx="111.81818"
       fy="102.18182"
       id="radialGradient4359"
       xlink:href="#linearGradient4353"
       gradientUnits="userSpaceOnUse"
       gradientTransform="matrix(1.2845378,0.00387306,-0.00381211,1.3500147,-31.426968,-36.9255)" />
    <linearGradient
       id="linearGradient4336-1">
      <stop
         id="stop4338-3"
         style="stop-color:#aee2f1;stop-opacity:1"
         offset="0" />
      <stop
         id="stop4340-8"
         style="stop-color:#388cba;stop-opacity:1"
         offset="1" />
    </linearGradient>
    <radialGradient
       cx="126.13193"
       cy="74.774399"
       r="128"
       fx="126.13193"
       fy="74.774399"
       id="radialGradient4351-7"
       xlink:href="#linearGradient4345-4"
       gradientUnits="userSpaceOnUse"
       gradientTransform="matrix(0.66329414,0.95629952,-0.84615588,0.58689795,111.97187,-59.761935)" />
    <linearGradient
       id="linearGradient4345-4">
      <stop
         id="stop4347-2"
         style="stop-color:#b2e1ef;stop-opacity:1"
         offset="0" />
      <stop
         id="stop4349-7"
         style="stop-color:#2d6c9c;stop-opacity:1"
         offset="1" />
    </linearGradient>
    <clipPath
       id="clipPath4480">
      <path
         d="m -192,391.75 c -3.22743,0 -6.38859,0.33017 -9.4375,0.9375 -3.03606,0.29674 -6.02212,0.74046 -8.96875,1.3125 -2.94663,0.57204 -5.84368,1.25963 -8.6875,2.09375 -2.84382,0.83412 -5.64737,1.82329 -8.375,2.90625 -2.72763,1.08296 -5.40193,2.27517 -8,3.59375 -2.59807,1.31858 -5.10737,2.74028 -7.5625,4.28125 -2.45513,1.54097 -4.85743,3.18738 -7.15625,4.9375 -2.29882,1.75012 -4.49587,3.61645 -6.625,5.5625 -2.12913,1.94605 -4.17894,3.99625 -6.125,6.125 -1.94606,2.12875 -3.78163,4.32678 -5.53125,6.625 -1.74962,2.29822 -3.3977,4.67055 -4.9375,7.125 -1.5398,2.45445 -2.99589,4.99629 -4.3125,7.59375 -1.31661,2.59746 -2.51371,5.27276 -3.59375,8 -1.08004,2.72724 -2.04491,5.49996 -2.875,8.34375 -0.83009,2.84379 -1.52698,5.74039 -2.09375,8.6875 -0.56677,2.94711 -0.99118,5.96281 -1.28125,9 -0.29007,3.03719 -0.4375,6.1047 -0.4375,9.21875 0,3.30195 0.17379,6.56706 0.5,9.78125 0.32621,3.21419 0.80117,6.38909 1.4375,9.5 0.63633,3.11091 1.4134,6.16414 2.34375,9.15625 0.93035,2.99211 2.01047,5.92346 3.21875,8.78125 1.20828,2.85779 2.56113,5.6358 4.03125,8.34375 1.47012,2.70795 3.06539,5.3324 4.78125,7.875 1.71586,2.5426 3.55449,5.01328 5.5,7.375 1.94551,2.36172 3.99719,4.61592 6.15625,6.78125 0.55025,0.66674 1.16464,1.28026 1.84375,1.8125 0.67911,0.53224 1.43306,0.99872 2.21875,1.375 0.78569,0.37628 1.59877,0.64488 2.46875,0.84375 0.86998,0.19887 1.78677,0.3125 2.71875,0.3125 1.65686,0 3.22059,-0.33027 4.65625,-0.9375 1.43566,-0.60723 2.75796,-1.47671 3.84375,-2.5625 1.08579,-1.08579 1.95527,-2.40809 2.5625,-3.84375 0.60723,-1.43566 0.9375,-2.9994 0.9375,-4.65625 0,-0.7523 -0.0863,-1.47356 -0.21875,-2.1875 -0.031,-0.1674 -0.0558,-0.33512 -0.0937,-0.5 -0.27934,-1.43557 -0.50635,-2.89899 -0.65625,-4.375 -0.16387,-1.61361 -0.25,-3.21815 -0.25,-4.875 0,-1.65686 0.0861,-3.29263 0.25,-4.90625 0.16388,-1.61362 0.39905,-3.21891 0.71875,-4.78125 0.3197,-1.56234 0.72001,-3.09073 1.1875,-4.59375 0.46749,-1.50302 1.01777,-2.97059 1.625,-4.40625 0.60723,-1.43566 1.26106,-2.82725 2,-4.1875 0.73894,-1.36026 1.54365,-2.69194 2.40625,-3.96875 0.8626,-1.27681 1.80304,-2.53344 2.78125,-3.71875 0.97821,-1.18532 2.00796,-2.28921 3.09375,-3.375 1.08579,-1.08579 2.22094,-2.11554 3.40625,-3.09375 1.18531,-0.97821 2.41069,-1.91865 3.6875,-2.78125 1.27681,-0.86259 2.6085,-1.66731 3.96875,-2.40625 1.36025,-0.73894 2.75184,-1.42402 4.1875,-2.03125 1.43566,-0.60723 2.90322,-1.12626 4.40625,-1.59375 1.50301,-0.46749 3.03141,-0.86779 4.59375,-1.1875 1.56235,-0.3197 3.16764,-0.55487 4.78125,-0.71875 1.61362,-0.16387 3.2494,-0.25 4.90625,-0.25 0.17841,0 0.35333,-0.0287 0.53125,-0.0312 1.38575,0.26808 2.74107,0.65907 4.03125,1.15625 1.29018,0.49718 2.51508,1.10901 3.6875,1.8125 1.17242,0.70349 2.28002,1.48798 3.3125,2.375 1.03248,0.88702 2.00465,1.8585 2.875,2.90625 0.87035,1.04775 1.62646,2.18931 2.3125,3.375 0.68604,1.18569 1.3017,2.4179 1.78125,3.71875 0.47955,1.30085 0.84288,2.66929 1.09375,4.0625 0.25087,1.39321 0.375,2.81846 0.375,4.28125 0,2.47445 -0.32971,4.8478 -0.9375,7.09375 -0.86636,2.30106 -1.55837,4.67205 -2.0625,7.125 -0.50413,2.45295 -0.82039,4.98786 -0.9375,7.5625 -0.0335,0.73561 -0.0625,1.47475 -0.0625,2.21875 0,0.0419 -1.1e-4,0.0831 0,0.125 -1.1e-4,0.0419 0,0.0831 0,0.125 0.004,0.74369 0.0252,1.48342 0.0625,2.21875 0.0417,0.90171 0.0973,1.79904 0.1875,2.6875 0.16387,1.61361 0.4303,3.21891 0.75,4.78125 0.31969,1.56234 0.68877,3.09072 1.15625,4.59375 0.4675,1.50302 1.01777,2.97059 1.625,4.40625 0.60723,1.43567 1.26106,2.82725 2,4.1875 0.73893,1.36025 1.5749,2.69194 2.4375,3.96875 0.8626,1.27681 1.7718,2.53343 2.75,3.71875 0.97821,1.18532 2.00796,2.28921 3.09375,3.375 1.08579,1.0858 2.22093,2.11554 3.40625,3.09375 1.18531,0.97821 2.41069,1.91865 3.6875,2.78125 1.27681,0.8626 2.6085,1.66731 3.96875,2.40625 1.36025,0.73894 2.75183,1.42401 4.1875,2.03125 1.43565,0.60723 2.90323,1.12626 4.40625,1.59375 1.50303,0.46749 3.0314,0.8678 4.59375,1.1875 1.56233,0.31969 3.16764,0.55487 4.78125,0.71875 1.6326,0.0826 3.25314,0.25 4.90625,0.25 1.6531,0 3.27365,-0.16744 4.90625,-0.25 3.17055,-0.16035 6.29274,-0.47774 9.375,-0.9375 3.08226,-0.45976 6.11443,-1.06784 9.09375,-1.8125 2.97932,-0.74466 5.919524,-1.60994 8.78125,-2.625 2.861726,-1.01506 5.645512,-2.16654 8.375,-3.4375 2.729488,-1.27096 5.38615,-2.67515 7.96875,-4.1875 2.5826,-1.51235 5.110187,-3.13576 7.53125,-4.875 2.421063,-1.73924 4.755123,-3.57963 7,-5.53125 2.244877,-1.95162 4.383457,-4.00675 6.4375,-6.15625 2.054043,-2.1495 4.026441,-4.41712 5.875,-6.75 1.848559,-2.33288 3.590324,-4.74825 5.21875,-7.25 1.628426,-2.50175 3.137606,-5.09388 4.53125,-7.75 1.393644,-2.65612 2.668287,-5.36027 3.8125,-8.15625 1.144213,-2.79598 2.151116,-5.67241 3.03125,-8.59375 0.880134,-2.92134 1.617345,-5.90531 2.21875,-8.9375 0.601405,-3.03219 1.066973,-6.12146 1.375,-9.25 C -32.160723,494.37146 -32,491.21039 -32,488 c 0,-3.30195 -0.173789,-6.56706 -0.5,-9.78125 -0.326211,-3.21419 -0.801171,-6.38909 -1.4375,-9.5 -0.636329,-3.11091 -1.413398,-6.16414 -2.34375,-9.15625 -0.930352,-2.99211 -2.010468,-5.92346 -3.21875,-8.78125 -1.208282,-2.85779 -2.561133,-5.6358 -4.03125,-8.34375 -1.470117,-2.70795 -3.065391,-5.3324 -4.78125,-7.875 -1.715859,-2.5426 -3.554493,-5.01328 -5.5,-7.375 -1.945507,-2.36172 -3.997189,-4.61592 -6.15625,-6.78125 -0.55024,-0.66674 -1.164638,-1.28026 -1.84375,-1.8125 -0.679112,-0.53224 -1.433056,-0.99872 -2.21875,-1.375 -0.785694,-0.37628 -1.598765,-0.64488 -2.46875,-0.84375 -0.869985,-0.19887 -1.786765,-0.3125 -2.71875,-0.3125 -1.656852,0 -3.22059,0.33027 -4.65625,0.9375 -1.43566,0.60723 -2.757963,1.47671 -3.84375,2.5625 -1.085787,1.08579 -1.955266,2.40809 -2.5625,3.84375 -0.607234,1.43566 -0.9375,2.9994 -0.9375,4.65625 0,0.7523 0.0863,1.47356 0.21875,2.1875 0.031,0.1674 0.05595,0.33512 0.09375,0.5 0.27934,1.43557 0.50635,2.89899 0.65625,4.375 0.16387,1.61361 0.25,3.21815 0.25,4.875 0,1.65686 -0.0861,3.29263 -0.25,4.90625 -0.16388,1.61362 -0.39905,3.21891 -0.71875,4.78125 -0.3197,1.56234 -0.72001,3.09073 -1.1875,4.59375 -0.46749,1.50302 -1.01777,2.97059 -1.625,4.40625 -0.60723,1.43566 -1.26106,2.82725 -2,4.1875 -0.73894,1.36026 -1.54365,2.69194 -2.40625,3.96875 -0.8626,1.27681 -1.80304,2.53344 -2.78125,3.71875 -0.97821,1.18532 -2.00796,2.28921 -3.09375,3.375 -1.08579,1.0858 -2.22093,2.11554 -3.40625,3.09375 -1.18531,0.97821 -2.41069,1.91865 -3.6875,2.78125 -1.27681,0.86259 -2.6085,1.66731 -3.96875,2.40625 -1.36025,0.73894 -2.75184,1.42402 -4.1875,2.03125 -1.43566,0.60723 -2.90322,1.12626 -4.40625,1.59375 -1.50301,0.46749 -3.03141,0.86779 -4.59375,1.1875 -1.56234,0.3197 -3.16764,0.55487 -4.78125,0.71875 -0.51731,0.0525 -1.04067,0.0887 -1.5625,0.125 -0.30116,-0.0207 -0.60359,-0.0473 -0.90625,-0.0625 -1.56192,-0.10686 -3.0948,-0.35613 -4.5625,-0.75 -1.4677,-0.39387 -2.87414,-0.94198 -4.21875,-1.59375 -1.34461,-0.65177 -2.61983,-1.40069 -3.8125,-2.28125 -1.19267,-0.88056 -2.30064,-1.88851 -3.3125,-2.96875 -1.01186,-1.08024 -1.91656,-2.2492 -2.71875,-3.5 -0.80219,-1.2508 -1.49884,-2.5765 -2.0625,-3.96875 -0.56366,-1.39225 -1.01624,-2.83916 -1.3125,-4.34375 -0.29626,-1.50459 -0.4375,-3.06843 -0.4375,-4.65625 0,-2.14543 0.24151,-4.16943 0.65625,-6.0625 0.437,-1.09751 0.834,-2.20722 1.1875,-3.34375 0.46748,-1.50302 0.83656,-3.03142 1.15625,-4.59375 0.21577,-1.05444 0.37916,-2.13584 0.53125,-3.21875 0.0733,-0.52163 0.16548,-1.03792 0.21875,-1.5625 0.0996,-0.98031 0.14721,-1.95012 0.1875,-2.9375 0.0302,-0.64441 0.0579,-1.28668 0.0625,-1.9375 0,-0.82842 -0.0205,-1.651 -0.0625,-2.46875 -0.13919,-3.19027 -0.58058,-6.31343 -1.3125,-9.3125 -0.73192,-2.99907 -1.76576,-5.87643 -3.03125,-8.625 -1.26549,-2.74857 -2.7601,-5.3425 -4.5,-7.78125 -1.7399,-2.43875 -3.71985,-4.71163 -5.875,-6.78125 -2.15515,-2.06962 -4.48875,-3.95257 -7,-5.59375 -2.51125,-1.64118 -5.19182,-3.03407 -8,-4.1875 -2.80818,-1.15343 -5.76655,-2.04988 -8.8125,-2.65625 -3.04595,-0.60637 -6.18169,-0.9375 -9.40625,-0.9375 z"
         id="path4482"
         style="opacity:0.53424784;fill:#067f07;fill-opacity:1;stroke:none" />
    </clipPath>
    <filter
       color-interpolation-filters="sRGB"
       id="filter4552">
      <feGaussianBlur
         id="feGaussianBlur4554"
         stdDeviation="10.87156" />
    </filter>
    <radialGradient
       cx="111.81818"
       cy="102.18182"
       r="120"
       fx="111.81818"
       fy="102.18182"
       id="radialGradient4359-3"
       xlink:href="#linearGradient4353-1"
       gradientUnits="userSpaceOnUse"
       gradientTransform="matrix(1.2845378,0.00387306,-0.00381211,1.3500147,-31.426968,-36.9255)" />
    <linearGradient
       id="linearGradient4353-1">
      <stop
         id="stop4355-9"
         style="stop-color:#e1e379;stop-opacity:1"
         offset="0" />
      <stop
         id="stop4363-8"
         style="stop-color:#69c225;stop-opacity:1"
         offset="0.57828122" />
      <stop
         id="stop4357-6"
         style="stop-color:#067f07;stop-opacity:1"
         offset="1" />
    </linearGradient>
    <clipPath
       id="clipPath4706">
      <path
         d="m -143.96875,480 c -4.37094,0 -8.67937,0.22833 -12.9375,0.65625 -4.25813,0.42792 -8.46918,1.03994 -12.59375,1.875 -4.12457,0.83506 -8.186,1.87234 -12.15625,3.09375 -3.97025,1.22141 -7.86106,2.63176 -11.65625,4.21875 -3.79519,1.58699 -7.49438,3.34947 -11.09375,5.28125 -3.59937,1.93178 -7.08596,4.05671 -10.46875,6.3125 -3.38279,2.25579 -6.63579,4.65973 -9.78125,7.21875 -3.14546,2.55902 -6.17512,5.25229 -9.0625,8.09375 -2.88738,2.84146 -5.64145,5.83437 -8.25,8.9375 -2.60855,3.10313 -5.06604,6.31224 -7.375,9.65625 -2.30896,3.34401 -4.48013,6.81089 -6.46875,10.375 -1.98862,3.56411 -3.82122,7.23657 -5.46875,11 -1.64753,3.76343 -3.08932,7.62053 -4.375,11.5625 -1.28568,3.94197 -2.40942,7.96277 -3.3125,12.0625 -0.90308,4.09973 -1.59402,8.29455 -2.09375,12.53125 -0.15037,1.27483 -0.13737,2.589 -0.25,3.875 0.34904,-2.9641 0.85564,-5.90685 1.46875,-8.78125 0.61311,-2.8744 1.35425,-5.6966 2.21875,-8.46875 0.8645,-2.77215 1.83428,-5.4989 2.9375,-8.15625 1.10322,-2.65735 2.32698,-5.25125 3.65625,-7.78125 1.32927,-2.53 2.76985,-4.98489 4.3125,-7.375 1.54265,-2.39011 3.19414,-4.69984 4.9375,-6.9375 1.74336,-2.23766 3.56861,-4.39609 5.5,-6.46875 1.93139,-2.07266 3.95575,-4.07363 6.0625,-5.96875 2.10675,-1.89512 4.29306,-3.70123 6.5625,-5.40625 2.26944,-1.70502 4.64304,-3.31012 7.0625,-4.8125 2.41946,-1.50238 4.91194,-2.90032 7.46875,-4.1875 2.55681,-1.28718 5.16227,-2.44056 7.84375,-3.5 2.68148,-1.05944 5.42527,-2.02461 8.21875,-2.84375 2.79348,-0.81914 5.63843,-1.4962 8.53125,-2.0625 2.89282,-0.5663 5.83302,-1.01159 8.8125,-1.3125 1.57166,-0.32371 3.18479,-0.55749 4.8125,-0.71875 1.62771,-0.16126 3.27001,-0.25 4.9375,-0.25 3.22456,0 6.3603,0.33113 9.40625,0.9375 3.04595,0.60637 6.00432,1.50282 8.8125,2.65625 2.80818,1.15343 5.48875,2.54632 8,4.1875 2.51125,1.64118 4.84485,3.52413 7,5.59375 2.15515,2.06962 4.1351,4.3425 5.875,6.78125 1.7399,2.43875 3.23451,5.03268 4.5,7.78125 1.26549,2.74857 2.29933,5.62593 3.03125,8.625 0.73192,2.99907 1.17331,6.12223 1.3125,9.3125 0.042,0.81775 0.0625,1.64032 0.0625,2.46875 -0.005,0.65082 -0.0323,1.29309 -0.0625,1.9375 -0.0403,0.98738 -0.0879,1.95719 -0.1875,2.9375 -0.16387,1.61362 -0.4303,3.2189 -0.75,4.78125 -0.31969,1.56233 -0.68877,3.09073 -1.15625,4.59375 -0.35617,1.14509 -0.77791,2.2695 -1.21875,3.375 -0.40963,1.8829 -0.625,3.89934 -0.625,6.03125 0,1.58782 0.14124,3.15166 0.4375,4.65625 0.29626,1.50459 0.74884,2.9515 1.3125,4.34375 0.56366,1.39225 1.26031,2.71795 2.0625,3.96875 0.80219,1.2508 1.70689,2.41976 2.71875,3.5 1.01186,1.08024 2.11983,2.08819 3.3125,2.96875 1.19267,0.88056 2.46788,1.62948 3.8125,2.28125 1.34462,0.65177 2.75105,1.19988 4.21875,1.59375 1.4677,0.39387 3.00058,0.64314 4.5625,0.75 0.27125,0.0136 0.54245,0.0444 0.8125,0.0625 0.55323,-0.0374 1.10809,-0.0693 1.65625,-0.125 1.61361,-0.16388 3.21891,-0.39905 4.78125,-0.71875 1.56234,-0.31971 3.09074,-0.72001 4.59375,-1.1875 1.50303,-0.46749 2.97059,-0.98652 4.40625,-1.59375 1.43566,-0.60723 2.82725,-1.29231 4.1875,-2.03125 1.36025,-0.73894 2.69194,-1.54366 3.96875,-2.40625 1.27681,-0.8626 2.50219,-1.80304 3.6875,-2.78125 1.18532,-0.97821 2.32046,-2.00795 3.40625,-3.09375 1.08579,-1.08579 2.11554,-2.18968 3.09375,-3.375 0.97821,-1.18531 1.91865,-2.44194 2.78125,-3.71875 0.8626,-1.27681 1.66731,-2.60849 2.40625,-3.96875 0.73894,-1.36025 1.39277,-2.75184 2,-4.1875 0.60723,-1.43566 1.15751,-2.90323 1.625,-4.40625 0.46749,-1.50302 0.8678,-3.03141 1.1875,-4.59375 0.3197,-1.56234 0.55487,-3.16763 0.71875,-4.78125 0.1639,-1.61362 0.25,-3.24939 0.25,-4.90625 0,-1.65685 -0.08613,-3.26139 -0.25,-4.875 -0.1499,-1.47601 -0.37691,-2.93943 -0.65625,-4.375 -0.0379,-0.16488 -0.06275,-0.3326 -0.09375,-0.5 -0.13245,-0.71394 -0.21875,-1.4352 -0.21875,-2.1875 0,-1.65685 0.330266,-3.22059 0.9375,-4.65625 0.607234,-1.43566 1.476713,-2.75796 2.5625,-3.84375 1.085787,-1.08579 2.40809,-1.95527 3.84375,-2.5625 1.43566,-0.60723 2.999398,-0.9375 4.65625,-0.9375 0.931985,0 1.848765,0.11363 2.71875,0.3125 0.869985,0.19887 1.683056,0.46747 2.46875,0.84375 0.785694,0.37628 1.539638,0.84276 2.21875,1.375 0.679112,0.53224 1.29351,1.14576 1.84375,1.8125 2.091591,2.09766 4.07734,4.2803 5.96875,6.5625 1.89141,2.2822 3.698402,4.67237 5.375,7.125 1.676598,2.45263 3.240345,4.98479 4.6875,7.59375 1.447155,2.60896 2.76567,5.28008 3.96875,8.03125 1.20308,2.75117 2.274377,5.58948 3.21875,8.46875 0.944373,2.87927 1.766464,5.81924 2.4375,8.8125 0.671036,2.99326 1.210684,6.03186 1.59375,9.125 0.383066,3.09314 0.607034,6.22733 0.6875,9.40625 -0.08388,-4.34561 -0.399634,-8.64568 -0.90625,-12.875 -0.506616,-4.22932 -1.216333,-8.37642 -2.125,-12.46875 -0.908667,-4.09233 -1.991214,-8.12788 -3.28125,-12.0625 -1.290036,-3.93462 -2.786779,-7.77504 -4.4375,-11.53125 -1.650721,-3.75621 -3.478027,-7.41166 -5.46875,-10.96875 -1.990723,-3.55709 -4.127457,-7.00649 -6.4375,-10.34375 -2.310043,-3.33726 -4.76632,-6.55953 -7.375,-9.65625 -2.60868,-3.09672 -5.363367,-6.07078 -8.25,-8.90625 -2.886633,-2.83547 -5.918596,-5.54023 -9.0625,-8.09375 -3.143904,-2.55352 -6.400758,-4.9679 -9.78125,-7.21875 -3.380492,-2.25085 -6.872353,-4.35377 -10.46875,-6.28125 -3.596397,-1.92748 -7.302131,-3.6666 -11.09375,-5.25 -3.791619,-1.5834 -7.69009,-3.00014 -11.65625,-4.21875 -3.96616,-1.21861 -8.00499,-2.26063 -12.125,-3.09375 -4.12001,-0.83312 -8.30931,-1.44809 -12.5625,-1.875 C -135.28444,480.22934 -139.60307,480 -143.96875,480 z m -32,128.0625 c -1.65685,0 -3.29263,0.0861 -4.90625,0.25 -1.61361,0.16388 -3.2189,0.39905 -4.78125,0.71875 -1.56234,0.31971 -3.09074,0.72001 -4.59375,1.1875 -1.50303,0.46749 -2.97059,0.98652 -4.40625,1.59375 -1.43566,0.60723 -2.82725,1.29231 -4.1875,2.03125 -1.36025,0.73894 -2.69194,1.54366 -3.96875,2.40625 -1.27681,0.8626 -2.50219,1.80304 -3.6875,2.78125 -1.18531,0.97821 -2.32046,2.00796 -3.40625,3.09375 -1.08579,1.08579 -2.11554,2.18968 -3.09375,3.375 -0.97821,1.18531 -1.91865,2.44194 -2.78125,3.71875 -0.8626,1.27681 -1.66731,2.60849 -2.40625,3.96875 -0.73894,1.36025 -1.39277,2.75184 -2,4.1875 -0.60723,1.43566 -1.15751,2.90323 -1.625,4.40625 -0.46749,1.50302 -0.8678,3.03141 -1.1875,4.59375 -0.3197,1.56234 -0.55487,3.16763 -0.71875,4.78125 -0.1639,1.61362 -0.25,3.24939 -0.25,4.90625 0,1.65685 0.0861,3.26139 0.25,4.875 0.1499,1.47601 0.37691,2.93943 0.65625,4.375 0.0379,0.16488 0.0627,0.3326 0.0937,0.5 0.13245,0.71394 0.21875,1.4352 0.21875,2.1875 0,1.65685 -0.33027,3.22059 -0.9375,4.65625 -0.60723,1.43566 -1.47671,2.75796 -2.5625,3.84375 -1.08579,1.08579 -2.40809,1.95527 -3.84375,2.5625 -1.43566,0.60723 -2.99939,0.9375 -4.65625,0.9375 -0.93198,0 -1.84877,-0.11363 -2.71875,-0.3125 -0.86998,-0.19887 -1.68306,-0.46747 -2.46875,-0.84375 -0.78569,-0.37628 -1.53964,-0.84276 -2.21875,-1.375 -0.67911,-0.53224 -1.29351,-1.14576 -1.84375,-1.8125 -2.09159,-2.09766 -4.07734,-4.2803 -5.96875,-6.5625 -1.89141,-2.2822 -3.6984,-4.67237 -5.375,-7.125 -1.6766,-2.45263 -3.24035,-4.98479 -4.6875,-7.59375 -1.44715,-2.60896 -2.76567,-5.28008 -3.96875,-8.03125 -1.20308,-2.75117 -2.27438,-5.58948 -3.21875,-8.46875 -0.94437,-2.87927 -1.76646,-5.81924 -2.4375,-8.8125 -0.67104,-2.99326 -1.21068,-6.03186 -1.59375,-9.125 -0.38307,-3.09314 -0.60703,-6.22733 -0.6875,-9.40625 0.0841,4.3454 0.39943,8.64607 0.90625,12.875 0.50682,4.22893 1.21617,8.37697 2.125,12.46875 0.90883,4.09178 1.99108,8.12855 3.28125,12.0625 1.29017,3.93395 2.78668,7.77581 4.4375,11.53125 1.65082,3.75544 3.47796,7.41251 5.46875,10.96875 1.99079,3.55624 4.12742,7.00739 6.4375,10.34375 2.31008,3.33636 4.79757,6.56046 7.40625,9.65625 2.60868,3.09579 5.33214,6.0717 8.21875,8.90625 2.88661,2.83455 5.91864,5.54113 9.0625,8.09375 3.14386,2.55262 6.40083,4.93749 9.78125,7.1875 3.38042,2.25001 6.87244,4.35454 10.46875,6.28125 3.59631,1.92671 7.30224,3.69851 11.09375,5.28125 3.79151,1.58274 7.69021,2.96942 11.65625,4.1875 3.96604,1.21808 8.00512,2.26102 12.125,3.09375 4.11988,0.83273 8.30946,1.44829 12.5625,1.875 4.25304,0.42671 8.57198,0.65625 12.9375,0.65625 4.36878,0 8.6814,-0.22891 12.9375,-0.65625 4.2561,-0.42734 8.47105,-1.04105 12.59375,-1.875 4.1227,-0.83395 8.15643,-1.87391 12.125,-3.09375 3.96857,-1.21984 7.862528,-2.63376 11.65625,-4.21875 3.793722,-1.58499 7.495603,-3.35184 11.09375,-5.28125 3.598147,-1.92941 7.086903,-4.02814 10.46875,-6.28125 3.381847,-2.25311 6.636427,-4.66268 9.78125,-7.21875 3.144823,-2.55607 6.175425,-5.25544 9.0625,-8.09375 2.887075,-2.83831 5.641397,-5.80644 8.25,-8.90625 2.608603,-3.09981 5.065594,-6.31567 7.375,-9.65625 2.309406,-3.34058 4.479265,-6.81437 6.46875,-10.375 1.989485,-3.56063 3.819911,-7.20881 5.46875,-10.96875 1.648839,-3.75994 3.118781,-7.62397 4.40625,-11.5625 1.287469,-3.93853 2.375875,-7.96612 3.28125,-12.0625 0.905375,-4.09638 1.622443,-8.26649 2.125,-12.5 0.502557,-4.23351 0.795986,-8.5251 0.875,-12.875 -0.07716,3.14142 -0.315319,6.25383 -0.6875,9.3125 -0.372181,3.05867 -0.878015,6.06916 -1.53125,9.03125 -0.653235,2.96209 -1.454682,5.86707 -2.375,8.71875 -0.920318,2.85168 -1.95157,5.64757 -3.125,8.375 -1.17343,2.72743 -2.49368,5.37939 -3.90625,7.96875 -1.41257,2.58936 -2.924761,5.12504 -4.5625,7.5625 -1.637739,2.43746 -3.401063,4.79077 -5.25,7.0625 -1.848937,2.27173 -3.797587,4.43908 -5.84375,6.53125 -2.046163,2.09217 -4.176832,4.10121 -6.40625,6 -2.229418,1.89879 -4.538799,3.68343 -6.9375,5.375 -2.398701,1.69157 -4.883486,3.27948 -7.4375,4.75 -2.554014,1.47052 -5.179645,2.82685 -7.875,4.0625 -2.695355,1.23565 -5.458526,2.35681 -8.28125,3.34375 -2.822724,0.98694 -5.720127,1.8381 -8.65625,2.5625 -2.936123,0.7244 -5.90195,1.33321 -8.9375,1.78125 -3.03555,0.44804 -6.12899,0.7484 -9.25,0.90625 -1.6326,0.0826 -3.25315,0.25 -4.90625,0.25 -1.65311,0 -3.27365,-0.1674 -4.90625,-0.25 -1.61361,-0.16388 -3.21892,-0.39906 -4.78125,-0.71875 -1.56235,-0.3197 -3.09072,-0.72001 -4.59375,-1.1875 -1.50302,-0.46749 -2.9706,-0.98652 -4.40625,-1.59375 -1.43567,-0.60724 -2.82725,-1.29231 -4.1875,-2.03125 -1.36025,-0.73894 -2.69194,-1.54365 -3.96875,-2.40625 -1.27681,-0.8626 -2.50219,-1.80304 -3.6875,-2.78125 -1.18532,-0.97821 -2.32046,-2.00795 -3.40625,-3.09375 -1.08579,-1.08579 -2.11554,-2.18968 -3.09375,-3.375 -0.9782,-1.18532 -1.8874,-2.44194 -2.75,-3.71875 -0.8626,-1.27681 -1.69857,-2.6085 -2.4375,-3.96875 -0.73894,-1.36025 -1.39277,-2.75183 -2,-4.1875 -0.60723,-1.43566 -1.1575,-2.90323 -1.625,-4.40625 -0.46748,-1.50303 -0.83656,-3.03141 -1.15625,-4.59375 -0.0166,-0.0814 -0.0149,-0.16841 -0.0312,-0.25 -0.29767,-1.48513 -0.56341,-3.00167 -0.71875,-4.53125 -0.0902,-0.88846 -0.14581,-1.78579 -0.1875,-2.6875 -0.0373,-0.73533 -0.0587,-1.47506 -0.0625,-2.21875 0,-0.0425 -1.1e-4,-0.0826 0,-0.125 -1.1e-4,-0.0419 0,-0.0831 0,-0.125 0,-0.73353 0.03,-1.46212 0.0625,-2.1875 5.4e-4,-0.0103 -5.4e-4,-0.0209 0,-0.0312 0.11711,-2.57464 0.43337,-5.10955 0.9375,-7.5625 0.50413,-2.45295 1.19614,-4.82394 2.0625,-7.125 0.60779,-2.24595 0.9375,-4.6193 0.9375,-7.09375 0,-1.4612 -0.12454,-2.89012 -0.375,-4.28125 -0.25046,-1.39113 -0.61497,-2.73272 -1.09375,-4.03125 -0.47878,-1.29853 -1.06506,-2.5666 -1.75,-3.75 -0.68494,-1.1834 -1.47479,-2.298 -2.34375,-3.34375 -0.86896,-1.04575 -1.84417,-2.02068 -2.875,-2.90625 -1.03083,-0.88557 -2.11071,-1.67214 -3.28125,-2.375 -1.17054,-0.70286 -2.43064,-1.31487 -3.71875,-1.8125 -1.28811,-0.49763 -2.61647,-0.88638 -4,-1.15625 -0.18809,0.003 -0.37387,0 -0.5625,0 z"
         id="path4708"
         style="opacity:0.65420562;fill:#fcd93a;fill-opacity:0.53333315;stroke:none" />
    </clipPath>
    <filter
       color-interpolation-filters="sRGB"
       id="filter4714">
      <feGaussianBlur
         id="feGaussianBlur4716"
         stdDeviation="4.8623853" />
    </filter>
    <clipPath
       id="clipPath4706-6">
      <path
         d="m -143.96875,480 c -4.37094,0 -8.67937,0.22833 -12.9375,0.65625 -4.25813,0.42792 -8.46918,1.03994 -12.59375,1.875 -4.12457,0.83506 -8.186,1.87234 -12.15625,3.09375 -3.97025,1.22141 -7.86106,2.63176 -11.65625,4.21875 -3.79519,1.58699 -7.49438,3.34947 -11.09375,5.28125 -3.59937,1.93178 -7.08596,4.05671 -10.46875,6.3125 -3.38279,2.25579 -6.63579,4.65973 -9.78125,7.21875 -3.14546,2.55902 -6.17512,5.25229 -9.0625,8.09375 -2.88738,2.84146 -5.64145,5.83437 -8.25,8.9375 -2.60855,3.10313 -5.06604,6.31224 -7.375,9.65625 -2.30896,3.34401 -4.48013,6.81089 -6.46875,10.375 -1.98862,3.56411 -3.82122,7.23657 -5.46875,11 -1.64753,3.76343 -3.08932,7.62053 -4.375,11.5625 -1.28568,3.94197 -2.40942,7.96277 -3.3125,12.0625 -0.90308,4.09973 -1.59402,8.29455 -2.09375,12.53125 -0.15037,1.27483 -0.13737,2.589 -0.25,3.875 0.34904,-2.9641 0.85564,-5.90685 1.46875,-8.78125 0.61311,-2.8744 1.35425,-5.6966 2.21875,-8.46875 0.8645,-2.77215 1.83428,-5.4989 2.9375,-8.15625 1.10322,-2.65735 2.32698,-5.25125 3.65625,-7.78125 1.32927,-2.53 2.76985,-4.98489 4.3125,-7.375 1.54265,-2.39011 3.19414,-4.69984 4.9375,-6.9375 1.74336,-2.23766 3.56861,-4.39609 5.5,-6.46875 1.93139,-2.07266 3.95575,-4.07363 6.0625,-5.96875 2.10675,-1.89512 4.29306,-3.70123 6.5625,-5.40625 2.26944,-1.70502 4.64304,-3.31012 7.0625,-4.8125 2.41946,-1.50238 4.91194,-2.90032 7.46875,-4.1875 2.55681,-1.28718 5.16227,-2.44056 7.84375,-3.5 2.68148,-1.05944 5.42527,-2.02461 8.21875,-2.84375 2.79348,-0.81914 5.63843,-1.4962 8.53125,-2.0625 2.89282,-0.5663 5.83302,-1.01159 8.8125,-1.3125 1.57166,-0.32371 3.18479,-0.55749 4.8125,-0.71875 1.62771,-0.16126 3.27001,-0.25 4.9375,-0.25 3.22456,0 6.3603,0.33113 9.40625,0.9375 3.04595,0.60637 6.00432,1.50282 8.8125,2.65625 2.80818,1.15343 5.48875,2.54632 8,4.1875 2.51125,1.64118 4.84485,3.52413 7,5.59375 2.15515,2.06962 4.1351,4.3425 5.875,6.78125 1.7399,2.43875 3.23451,5.03268 4.5,7.78125 1.26549,2.74857 2.29933,5.62593 3.03125,8.625 0.73192,2.99907 1.17331,6.12223 1.3125,9.3125 0.042,0.81775 0.0625,1.64032 0.0625,2.46875 -0.005,0.65082 -0.0323,1.29309 -0.0625,1.9375 -0.0403,0.98738 -0.0879,1.95719 -0.1875,2.9375 -0.16387,1.61362 -0.4303,3.2189 -0.75,4.78125 -0.31969,1.56233 -0.68877,3.09073 -1.15625,4.59375 -0.35617,1.14509 -0.77791,2.2695 -1.21875,3.375 -0.40963,1.8829 -0.625,3.89934 -0.625,6.03125 0,1.58782 0.14124,3.15166 0.4375,4.65625 0.29626,1.50459 0.74884,2.9515 1.3125,4.34375 0.56366,1.39225 1.26031,2.71795 2.0625,3.96875 0.80219,1.2508 1.70689,2.41976 2.71875,3.5 1.01186,1.08024 2.11983,2.08819 3.3125,2.96875 1.19267,0.88056 2.46788,1.62948 3.8125,2.28125 1.34462,0.65177 2.75105,1.19988 4.21875,1.59375 1.4677,0.39387 3.00058,0.64314 4.5625,0.75 0.27125,0.0136 0.54245,0.0444 0.8125,0.0625 0.55323,-0.0374 1.10809,-0.0693 1.65625,-0.125 1.61361,-0.16388 3.21891,-0.39905 4.78125,-0.71875 1.56234,-0.31971 3.09074,-0.72001 4.59375,-1.1875 1.50303,-0.46749 2.97059,-0.98652 4.40625,-1.59375 1.43566,-0.60723 2.82725,-1.29231 4.1875,-2.03125 1.36025,-0.73894 2.69194,-1.54366 3.96875,-2.40625 1.27681,-0.8626 2.50219,-1.80304 3.6875,-2.78125 1.18532,-0.97821 2.32046,-2.00795 3.40625,-3.09375 1.08579,-1.08579 2.11554,-2.18968 3.09375,-3.375 0.97821,-1.18531 1.91865,-2.44194 2.78125,-3.71875 0.8626,-1.27681 1.66731,-2.60849 2.40625,-3.96875 0.73894,-1.36025 1.39277,-2.75184 2,-4.1875 0.60723,-1.43566 1.15751,-2.90323 1.625,-4.40625 0.46749,-1.50302 0.8678,-3.03141 1.1875,-4.59375 0.3197,-1.56234 0.55487,-3.16763 0.71875,-4.78125 0.1639,-1.61362 0.25,-3.24939 0.25,-4.90625 0,-1.65685 -0.08613,-3.26139 -0.25,-4.875 -0.1499,-1.47601 -0.37691,-2.93943 -0.65625,-4.375 -0.0379,-0.16488 -0.06275,-0.3326 -0.09375,-0.5 -0.13245,-0.71394 -0.21875,-1.4352 -0.21875,-2.1875 0,-1.65685 0.330266,-3.22059 0.9375,-4.65625 0.607234,-1.43566 1.476713,-2.75796 2.5625,-3.84375 1.085787,-1.08579 2.40809,-1.95527 3.84375,-2.5625 1.43566,-0.60723 2.999398,-0.9375 4.65625,-0.9375 0.931985,0 1.848765,0.11363 2.71875,0.3125 0.869985,0.19887 1.683056,0.46747 2.46875,0.84375 0.785694,0.37628 1.539638,0.84276 2.21875,1.375 0.679112,0.53224 1.29351,1.14576 1.84375,1.8125 2.091591,2.09766 4.07734,4.2803 5.96875,6.5625 1.89141,2.2822 3.698402,4.67237 5.375,7.125 1.676598,2.45263 3.240345,4.98479 4.6875,7.59375 1.447155,2.60896 2.76567,5.28008 3.96875,8.03125 1.20308,2.75117 2.274377,5.58948 3.21875,8.46875 0.944373,2.87927 1.766464,5.81924 2.4375,8.8125 0.671036,2.99326 1.210684,6.03186 1.59375,9.125 0.383066,3.09314 0.607034,6.22733 0.6875,9.40625 -0.08388,-4.34561 -0.399634,-8.64568 -0.90625,-12.875 -0.506616,-4.22932 -1.216333,-8.37642 -2.125,-12.46875 -0.908667,-4.09233 -1.991214,-8.12788 -3.28125,-12.0625 -1.290036,-3.93462 -2.786779,-7.77504 -4.4375,-11.53125 -1.650721,-3.75621 -3.478027,-7.41166 -5.46875,-10.96875 -1.990723,-3.55709 -4.127457,-7.00649 -6.4375,-10.34375 -2.310043,-3.33726 -4.76632,-6.55953 -7.375,-9.65625 -2.60868,-3.09672 -5.363367,-6.07078 -8.25,-8.90625 -2.886633,-2.83547 -5.918596,-5.54023 -9.0625,-8.09375 -3.143904,-2.55352 -6.400758,-4.9679 -9.78125,-7.21875 -3.380492,-2.25085 -6.872353,-4.35377 -10.46875,-6.28125 -3.596397,-1.92748 -7.302131,-3.6666 -11.09375,-5.25 -3.791619,-1.5834 -7.69009,-3.00014 -11.65625,-4.21875 -3.96616,-1.21861 -8.00499,-2.26063 -12.125,-3.09375 -4.12001,-0.83312 -8.30931,-1.44809 -12.5625,-1.875 C -135.28444,480.22934 -139.60307,480 -143.96875,480 z m -32,128.0625 c -1.65685,0 -3.29263,0.0861 -4.90625,0.25 -1.61361,0.16388 -3.2189,0.39905 -4.78125,0.71875 -1.56234,0.31971 -3.09074,0.72001 -4.59375,1.1875 -1.50303,0.46749 -2.97059,0.98652 -4.40625,1.59375 -1.43566,0.60723 -2.82725,1.29231 -4.1875,2.03125 -1.36025,0.73894 -2.69194,1.54366 -3.96875,2.40625 -1.27681,0.8626 -2.50219,1.80304 -3.6875,2.78125 -1.18531,0.97821 -2.32046,2.00796 -3.40625,3.09375 -1.08579,1.08579 -2.11554,2.18968 -3.09375,3.375 -0.97821,1.18531 -1.91865,2.44194 -2.78125,3.71875 -0.8626,1.27681 -1.66731,2.60849 -2.40625,3.96875 -0.73894,1.36025 -1.39277,2.75184 -2,4.1875 -0.60723,1.43566 -1.15751,2.90323 -1.625,4.40625 -0.46749,1.50302 -0.8678,3.03141 -1.1875,4.59375 -0.3197,1.56234 -0.55487,3.16763 -0.71875,4.78125 -0.1639,1.61362 -0.25,3.24939 -0.25,4.90625 0,1.65685 0.0861,3.26139 0.25,4.875 0.1499,1.47601 0.37691,2.93943 0.65625,4.375 0.0379,0.16488 0.0627,0.3326 0.0937,0.5 0.13245,0.71394 0.21875,1.4352 0.21875,2.1875 0,1.65685 -0.33027,3.22059 -0.9375,4.65625 -0.60723,1.43566 -1.47671,2.75796 -2.5625,3.84375 -1.08579,1.08579 -2.40809,1.95527 -3.84375,2.5625 -1.43566,0.60723 -2.99939,0.9375 -4.65625,0.9375 -0.93198,0 -1.84877,-0.11363 -2.71875,-0.3125 -0.86998,-0.19887 -1.68306,-0.46747 -2.46875,-0.84375 -0.78569,-0.37628 -1.53964,-0.84276 -2.21875,-1.375 -0.67911,-0.53224 -1.29351,-1.14576 -1.84375,-1.8125 -2.09159,-2.09766 -4.07734,-4.2803 -5.96875,-6.5625 -1.89141,-2.2822 -3.6984,-4.67237 -5.375,-7.125 -1.6766,-2.45263 -3.24035,-4.98479 -4.6875,-7.59375 -1.44715,-2.60896 -2.76567,-5.28008 -3.96875,-8.03125 -1.20308,-2.75117 -2.27438,-5.58948 -3.21875,-8.46875 -0.94437,-2.87927 -1.76646,-5.81924 -2.4375,-8.8125 -0.67104,-2.99326 -1.21068,-6.03186 -1.59375,-9.125 -0.38307,-3.09314 -0.60703,-6.22733 -0.6875,-9.40625 0.0841,4.3454 0.39943,8.64607 0.90625,12.875 0.50682,4.22893 1.21617,8.37697 2.125,12.46875 0.90883,4.09178 1.99108,8.12855 3.28125,12.0625 1.29017,3.93395 2.78668,7.77581 4.4375,11.53125 1.65082,3.75544 3.47796,7.41251 5.46875,10.96875 1.99079,3.55624 4.12742,7.00739 6.4375,10.34375 2.31008,3.33636 4.79757,6.56046 7.40625,9.65625 2.60868,3.09579 5.33214,6.0717 8.21875,8.90625 2.88661,2.83455 5.91864,5.54113 9.0625,8.09375 3.14386,2.55262 6.40083,4.93749 9.78125,7.1875 3.38042,2.25001 6.87244,4.35454 10.46875,6.28125 3.59631,1.92671 7.30224,3.69851 11.09375,5.28125 3.79151,1.58274 7.69021,2.96942 11.65625,4.1875 3.96604,1.21808 8.00512,2.26102 12.125,3.09375 4.11988,0.83273 8.30946,1.44829 12.5625,1.875 4.25304,0.42671 8.57198,0.65625 12.9375,0.65625 4.36878,0 8.6814,-0.22891 12.9375,-0.65625 4.2561,-0.42734 8.47105,-1.04105 12.59375,-1.875 4.1227,-0.83395 8.15643,-1.87391 12.125,-3.09375 3.96857,-1.21984 7.862528,-2.63376 11.65625,-4.21875 3.793722,-1.58499 7.495603,-3.35184 11.09375,-5.28125 3.598147,-1.92941 7.086903,-4.02814 10.46875,-6.28125 3.381847,-2.25311 6.636427,-4.66268 9.78125,-7.21875 3.144823,-2.55607 6.175425,-5.25544 9.0625,-8.09375 2.887075,-2.83831 5.641397,-5.80644 8.25,-8.90625 2.608603,-3.09981 5.065594,-6.31567 7.375,-9.65625 2.309406,-3.34058 4.479265,-6.81437 6.46875,-10.375 1.989485,-3.56063 3.819911,-7.20881 5.46875,-10.96875 1.648839,-3.75994 3.118781,-7.62397 4.40625,-11.5625 1.287469,-3.93853 2.375875,-7.96612 3.28125,-12.0625 0.905375,-4.09638 1.622443,-8.26649 2.125,-12.5 0.502557,-4.23351 0.795986,-8.5251 0.875,-12.875 -0.07716,3.14142 -0.315319,6.25383 -0.6875,9.3125 -0.372181,3.05867 -0.878015,6.06916 -1.53125,9.03125 -0.653235,2.96209 -1.454682,5.86707 -2.375,8.71875 -0.920318,2.85168 -1.95157,5.64757 -3.125,8.375 -1.17343,2.72743 -2.49368,5.37939 -3.90625,7.96875 -1.41257,2.58936 -2.924761,5.12504 -4.5625,7.5625 -1.637739,2.43746 -3.401063,4.79077 -5.25,7.0625 -1.848937,2.27173 -3.797587,4.43908 -5.84375,6.53125 -2.046163,2.09217 -4.176832,4.10121 -6.40625,6 -2.229418,1.89879 -4.538799,3.68343 -6.9375,5.375 -2.398701,1.69157 -4.883486,3.27948 -7.4375,4.75 -2.554014,1.47052 -5.179645,2.82685 -7.875,4.0625 -2.695355,1.23565 -5.458526,2.35681 -8.28125,3.34375 -2.822724,0.98694 -5.720127,1.8381 -8.65625,2.5625 -2.936123,0.7244 -5.90195,1.33321 -8.9375,1.78125 -3.03555,0.44804 -6.12899,0.7484 -9.25,0.90625 -1.6326,0.0826 -3.25315,0.25 -4.90625,0.25 -1.65311,0 -3.27365,-0.1674 -4.90625,-0.25 -1.61361,-0.16388 -3.21892,-0.39906 -4.78125,-0.71875 -1.56235,-0.3197 -3.09072,-0.72001 -4.59375,-1.1875 -1.50302,-0.46749 -2.9706,-0.98652 -4.40625,-1.59375 -1.43567,-0.60724 -2.82725,-1.29231 -4.1875,-2.03125 -1.36025,-0.73894 -2.69194,-1.54365 -3.96875,-2.40625 -1.27681,-0.8626 -2.50219,-1.80304 -3.6875,-2.78125 -1.18532,-0.97821 -2.32046,-2.00795 -3.40625,-3.09375 -1.08579,-1.08579 -2.11554,-2.18968 -3.09375,-3.375 -0.9782,-1.18532 -1.8874,-2.44194 -2.75,-3.71875 -0.8626,-1.27681 -1.69857,-2.6085 -2.4375,-3.96875 -0.73894,-1.36025 -1.39277,-2.75183 -2,-4.1875 -0.60723,-1.43566 -1.1575,-2.90323 -1.625,-4.40625 -0.46748,-1.50303 -0.83656,-3.03141 -1.15625,-4.59375 -0.0166,-0.0814 -0.0149,-0.16841 -0.0312,-0.25 -0.29767,-1.48513 -0.56341,-3.00167 -0.71875,-4.53125 -0.0902,-0.88846 -0.14581,-1.78579 -0.1875,-2.6875 -0.0373,-0.73533 -0.0587,-1.47506 -0.0625,-2.21875 0,-0.0425 -1.1e-4,-0.0826 0,-0.125 -1.1e-4,-0.0419 0,-0.0831 0,-0.125 0,-0.73353 0.03,-1.46212 0.0625,-2.1875 5.4e-4,-0.0103 -5.4e-4,-0.0209 0,-0.0312 0.11711,-2.57464 0.43337,-5.10955 0.9375,-7.5625 0.50413,-2.45295 1.19614,-4.82394 2.0625,-7.125 0.60779,-2.24595 0.9375,-4.6193 0.9375,-7.09375 0,-1.4612 -0.12454,-2.89012 -0.375,-4.28125 -0.25046,-1.39113 -0.61497,-2.73272 -1.09375,-4.03125 -0.47878,-1.29853 -1.06506,-2.5666 -1.75,-3.75 -0.68494,-1.1834 -1.47479,-2.298 -2.34375,-3.34375 -0.86896,-1.04575 -1.84417,-2.02068 -2.875,-2.90625 -1.03083,-0.88557 -2.11071,-1.67214 -3.28125,-2.375 -1.17054,-0.70286 -2.43064,-1.31487 -3.71875,-1.8125 -1.28811,-0.49763 -2.61647,-0.88638 -4,-1.15625 -0.18809,0.003 -0.37387,0 -0.5625,0 z"
         id="path4708-5"
         style="opacity:0.65420562;fill:#fcd93a;fill-opacity:0.53333303;stroke:none" />
    </clipPath>
    <filter
       color-interpolation-filters="sRGB"
       id="filter4768">
      <feGaussianBlur
         id="feGaussianBlur4770"
         stdDeviation="14.587156" />
    </filter>
    <filter
       x="-0.21739881"
       y="-0.53141969"
       width="1.4347976"
       height="2.0628395"
       color-interpolation-filters="sRGB"
       id="filter4911">
      <feGaussianBlur
         id="feGaussianBlur4913"
         stdDeviation="15.94258" />
    </filter>
  </defs>
  <metadata
     id="metadata2990">
    <rdf:RDF>
      <cc:Work
         rdf:about="">
        <dc:format>image/svg+xml</dc:format>
        <dc:type
           rdf:resource="http://purl.org/dc/dcmitype/StillImage" />
        <dc:title></dc:title>
      </cc:Work>
    </rdf:RDF>
  </metadata>
  <g
     transform="translate(0,192)"
     id="layer1">
    <path
       d="M 128,0.28125 C 58.065,0.28125 1.2411731,56.384997 0.03125,126.03125 1.1881703,77.371276 38.578403,37.783288 86.25,32.96875 c 0.04001,-0.0082 0.08495,0.0081 0.125,0 C 89.481115,32.337292 92.707472,32 96,32 c 25.79652,0 46.82396,20.352871 47.9375,45.875 0.042,0.817754 0.0625,1.640325 0.0625,2.46875 -0.005,0.650823 -0.0323,1.293092 -0.0625,1.9375 -0.0403,0.987377 -0.0879,1.95719 -0.1875,2.9375 -0.0533,0.52458 -0.14549,1.040871 -0.21875,1.5625 C 143.37916,87.864163 143.21577,88.945563 143,90 c -0.31969,1.56233 -0.68877,3.09073 -1.15625,4.59375 -0.35617,1.145095 -0.77791,2.269502 -1.21875,3.375 C 140.21537,99.851651 140,101.86809 140,104 c 0,12.70255 9.94212,23.20764 22.4375,24.0625 0.27125,0.0136 0.54245,0.0444 0.8125,0.0625 0.55323,-0.0374 1.10809,-0.0693 1.65625,-0.125 1.61361,-0.16388 3.21891,-0.39905 4.78125,-0.71875 1.56234,-0.31971 3.09074,-0.72001 4.59375,-1.1875 1.50303,-0.46749 2.97059,-0.98652 4.40625,-1.59375 1.43566,-0.60723 2.82725,-1.29231 4.1875,-2.03125 1.36025,-0.73894 2.69194,-1.54366 3.96875,-2.40625 1.27681,-0.8626 2.50219,-1.80304 3.6875,-2.78125 1.18532,-0.97821 2.32046,-2.00795 3.40625,-3.09375 1.08579,-1.08579 2.11554,-2.18968 3.09375,-3.375 0.97821,-1.18531 1.91865,-2.44194 2.78125,-3.71875 0.8626,-1.27681 1.66731,-2.60849 2.40625,-3.96875 0.73894,-1.36025 1.39277,-2.75184 2,-4.1875 0.60723,-1.43566 1.15751,-2.90323 1.625,-4.40625 0.46749,-1.50302 0.8678,-3.03141 1.1875,-4.59375 0.3197,-1.56234 0.55487,-3.16763 0.71875,-4.78125 0.1639,-1.61362 0.25,-3.24939 0.25,-4.90625 0,-1.65685 -0.0861,-3.26139 -0.25,-4.875 -0.1499,-1.47601 -0.37691,-2.93943 -0.65625,-4.375 -0.0379,-0.16488 -0.0627,-0.3326 -0.0937,-0.5 -0.13245,-0.71394 -0.21875,-1.4352 -0.21875,-2.1875 0,-6.62742 5.37259,-12 12,-12 3.72794,0 7.04904,1.67678 9.25,4.34375 16.73272,16.781288 27.29377,39.69366 27.9375,65.125 C 254.62664,56.251454 197.85085,0.28125 128,0.28125 z m -32,128.0625 c -1.65685,0 -3.29263,0.0861 -4.90625,0.25 -1.61361,0.16388 -3.2189,0.39905 -4.78125,0.71875 -1.56234,0.31971 -3.09074,0.72001 -4.59375,1.1875 -1.50303,0.46749 -2.97059,0.98652 -4.40625,1.59375 -1.43566,0.60723 -2.82725,1.29231 -4.1875,2.03125 -1.36025,0.73894 -2.69194,1.54366 -3.96875,2.40625 -1.27681,0.8626 -2.50219,1.80304 -3.6875,2.78125 -1.18531,0.97821 -2.32046,2.00796 -3.40625,3.09375 -1.08579,1.08579 -2.11554,2.18968 -3.09375,3.375 -0.97821,1.18531 -1.91865,2.44194 -2.78125,3.71875 -0.8626,1.27681 -1.66731,2.60849 -2.40625,3.96875 -0.73894,1.36025 -1.39277,2.75184 -2,4.1875 -0.60723,1.43566 -1.15751,2.90323 -1.625,4.40625 -0.46749,1.50302 -0.8678,3.03141 -1.1875,4.59375 -0.3197,1.56234 -0.55487,3.16763 -0.71875,4.78125 -0.1639,1.61362 -0.25,3.24939 -0.25,4.90625 0,1.65685 0.08613,3.26139 0.25,4.875 0.1499,1.47601 0.37691,2.93943 0.65625,4.375 0.0379,0.16488 0.06275,0.3326 0.09375,0.5 0.13245,0.71394 0.21875,1.4352 0.21875,2.1875 0,6.62742 -5.37258,12 -12,12 -3.72792,0 -7.04902,-1.67678 -9.25,-4.34375 C 11.236025,179.15621 0.67497738,156.24384 0.03125,130.8125 1.3772481,200.33886 58.151631,256.28125 128,256.28125 c 69.90047,0 126.70453,-56.02653 127.96875,-125.625 -1.23449,50.26279 -41.12642,90.81822 -91.0625,93.34375 -1.6326,0.0826 -3.25315,0.25 -4.90625,0.25 -1.65311,0 -3.27365,-0.1674 -4.90625,-0.25 -1.61361,-0.16388 -3.21892,-0.39906 -4.78125,-0.71875 -1.56235,-0.3197 -3.09072,-0.72001 -4.59375,-1.1875 -1.50302,-0.46749 -2.9706,-0.98652 -4.40625,-1.59375 -1.43567,-0.60724 -2.82725,-1.29231 -4.1875,-2.03125 -1.36025,-0.73894 -2.69194,-1.54365 -3.96875,-2.40625 -1.27681,-0.8626 -2.50219,-1.80304 -3.6875,-2.78125 -1.18532,-0.97821 -2.32046,-2.00795 -3.40625,-3.09375 -1.08579,-1.08579 -2.11554,-2.18968 -3.09375,-3.375 -0.9782,-1.18532 -1.8874,-2.44194 -2.75,-3.71875 -0.8626,-1.27681 -1.69857,-2.6085 -2.4375,-3.96875 -0.73894,-1.36025 -1.39277,-2.75183 -2,-4.1875 -0.60723,-1.43566 -1.1575,-2.90323 -1.625,-4.40625 -0.46748,-1.50303 -0.83656,-3.03141 -1.15625,-4.59375 -0.0166,-0.0814 -0.0149,-0.16841 -0.0312,-0.25 -0.29767,-1.48513 -0.56341,-3.00167 -0.71875,-4.53125 -0.0902,-0.88846 -0.14581,-1.78579 -0.1875,-2.6875 -0.0373,-0.73533 -0.0587,-1.47506 -0.0625,-2.21875 0,-0.0425 -1.1e-4,-0.0826 0,-0.125 -1.1e-4,-0.0419 0,-0.0831 0,-0.125 0,-0.73353 0.03,-1.46212 0.0625,-2.1875 5.4e-4,-0.0103 -5.4e-4,-0.0209 0,-0.0312 0.23422,-5.14929 1.26728,-10.08539 3,-14.6875 C 115.67029,156.8478 116,154.47445 116,152 c 0,-11.68963 -8.36925,-21.49725 -19.4375,-23.65625 -0.188086,0.003 -0.373866,0 -0.5625,0 z"
       transform="translate(0,-192)"
       id="path2991-12-1"
       style="fill:#ffffff;fill-opacity:1;stroke:none" />
  </g>
</svg>
