<svg xmlns="http://www.w3.org/2000/svg" xmlns:xlink="http://www.w3.org/1999/xlink" width="256" height="256"><defs><linearGradient id="c"><stop offset="0" stop-color="#e1e379"/><stop offset=".578" stop-color="#69c225"/><stop offset="1" stop-color="#067f07"/></linearGradient><linearGradient id="b"><stop offset="0" stop-color="#b2e1ef"/><stop offset="1" stop-color="#2d6c9c"/></linearGradient><linearGradient id="a"><stop offset="0" stop-color="#aee2f1"/><stop offset="1" stop-color="#388cba"/></linearGradient><radialGradient cx="116.631" cy="-95.845" r="80" fx="116.631" fy="-95.845" id="i" xlink:href="#a" gradientUnits="userSpaceOnUse" gradientTransform="matrix(.573 1.391 -1.159 .477 -49.843 -222.291)"/><radialGradient cx="126.132" cy="74.774" r="128" fx="126.132" fy="74.774" id="h" xlink:href="#b" gradientUnits="userSpaceOnUse" gradientTransform="matrix(.58 .837 -.74 .514 113.975 -244.292)"/><radialGradient cx="111.818" cy="102.182" r="120" fx="111.818" fy="102.182" id="g" xlink:href="#c" gradientUnits="userSpaceOnUse" gradientTransform="matrix(1.285 .004 -.004 1.35 -31.427 -36.925)"/><linearGradient><stop offset="0" stop-color="#aee2f1"/><stop offset="1" stop-color="#388cba"/></linearGradient><radialGradient cx="126.132" cy="74.774" r="128" fx="126.132" fy="74.774" xlink:href="#d" gradientUnits="userSpaceOnUse" gradientTransform="matrix(.663 .956 -.846 .587 111.972 -59.762)"/><linearGradient id="d"><stop offset="0" stop-color="#b2e1ef"/><stop offset="1" stop-color="#2d6c9c"/></linearGradient><clipPath id="j"><path d="M-192 391.75c-3.227 0-6.39.33-9.438.938-3.036.296-6.022.74-8.968 1.312-2.947.572-5.844 1.26-8.688 2.094-2.844.834-5.647 1.823-8.375 2.906-2.72 1.083-5.4 2.275-8 3.594-2.59 1.318-5.1 2.74-7.56 4.28-2.45 1.542-4.86 3.188-7.15 4.938-2.3 1.75-4.494 3.617-6.623 5.563-2.13 1.946-4.18 3.996-6.125 6.125-1.947 2.13-3.782 4.327-5.532 6.625-1.748 2.298-3.396 4.67-4.936 7.125-1.54 2.454-2.995 4.996-4.312 7.594-1.315 2.597-2.512 5.273-3.592 8-1.08 2.727-2.043 5.5-2.873 8.344-.83 2.843-1.526 5.74-2.093 8.687-.57 2.947-.993 5.963-1.284 9-.29 3.037-.438 6.105-.438 9.22 0 3.3.174 6.566.5 9.78.326 3.214.8 6.39 1.438 9.5.636 3.11 1.413 6.164 2.343 9.156.93 3 2.01 5.93 3.22 8.79 1.207 2.86 2.56 5.637 4.03 8.345 1.47 2.708 3.066 5.333 4.78 7.875 1.716 2.543 3.555 5.014 5.5 7.375 1.946 2.36 3.998 4.616 6.157 6.78.55.668 1.163 1.28 1.842 1.814.68.53 1.432 1 2.22 1.373.783.375 1.596.644 2.466.843.87.2 1.787.31 2.72.31 1.656 0 3.22-.33 4.655-.935 1.436-.605 2.758-1.475 3.844-2.56 1.087-1.086 1.956-2.408 2.56-3.843.61-1.436.94-3 .94-4.657 0-.75-.086-1.472-.22-2.186-.03-.17-.054-.338-.092-.5-.28-1.44-.502-2.9-.652-4.378-.163-1.615-.25-3.22-.25-4.876 0-1.658.087-3.294.25-4.908.165-1.614.4-3.22.72-4.78.32-1.564.72-3.09 1.187-4.596.467-1.503 1.017-2.97 1.624-4.406.61-1.437 1.263-2.83 2-4.19.74-1.36 1.546-2.69 2.41-3.97.86-1.275 1.8-2.53 2.78-3.72.98-1.182 2.01-2.286 3.094-3.372 1.085-1.087 2.22-2.116 3.406-3.095 1.184-.976 2.41-1.916 3.686-2.78 1.277-.86 2.61-1.666 3.97-2.405 1.36-.74 2.75-1.424 4.187-2.03 1.433-.608 2.9-1.128 4.404-1.595 1.503-.467 3.03-.868 4.594-1.188 1.563-.32 3.168-.554 4.78-.718 1.615-.164 3.25-.25 4.908-.25.178 0 .353-.03.53-.03 1.387.267 2.742.658 4.033 1.155 1.29.495 2.518 1.11 3.69 1.81 1.17.704 2.28 1.49 3.313 2.375 1.033.886 2.005 1.86 2.876 2.906.87 1.048 1.626 2.19 2.312 3.376.686 1.183 1.3 2.415 1.78 3.72.48 1.3.844 2.67 1.095 4.06.25 1.39.377 2.814.377 4.28 0 2.47-.33 4.845-.936 7.09-.87 2.3-1.56 4.673-2.065 7.126-.503 2.452-.82 4.987-.936 7.56-.035.737-.064 1.476-.064 2.22v.25c.005.744.026 1.483.064 2.22.04.9.095 1.798.185 2.686.163 1.615.43 3.22.75 4.783.32 1.562.69 3.09 1.155 4.593.468 1.5 1.018 2.97 1.625 4.405.61 1.435 1.264 2.827 2 4.187.74 1.36 1.578 2.692 2.44 3.97.86 1.276 1.77 2.532 2.75 3.72.98 1.184 2.01 2.29 3.095 3.374 1.084 1.085 2.22 2.115 3.405 3.093 1.185.98 2.41 1.92 3.687 2.782 1.276.862 2.61 1.667 3.97 2.406 1.36.735 2.75 1.42 4.186 2.03 1.434.604 2.902 1.123 4.405 1.59 1.5.466 3.03.867 4.593 1.186 1.564.32 3.17.555 4.78.72 1.635.082 3.256.25 4.91.25s3.272-.168 4.904-.25c3.17-.16 6.29-.48 9.372-.938 3.083-.46 6.115-1.07 9.094-1.814 2.98-.746 5.92-1.61 8.78-2.626 2.863-1.016 5.647-2.167 8.376-3.438 2.73-1.27 5.387-2.676 7.97-4.188 2.583-1.513 5.11-3.137 7.53-4.876 2.422-1.74 4.756-3.58 7-5.53 2.246-1.953 4.385-4.008 6.44-6.157 2.053-2.15 4.025-4.418 5.874-6.75 1.848-2.333 3.59-4.75 5.22-7.25 1.627-2.5 3.136-5.094 4.53-7.75 1.393-2.657 2.668-5.36 3.812-8.157 1.144-2.792 2.15-5.67 3.03-8.59.88-2.92 1.617-5.905 2.218-8.94.6-3.03 1.068-6.12 1.376-9.25.31-3.13.47-6.29.47-9.5 0-3.3-.174-6.564-.5-9.78-.326-3.212-.8-6.39-1.438-9.5-.636-3.11-1.413-6.162-2.343-9.155-.93-2.994-2.01-5.925-3.22-8.78-1.206-2.86-2.56-5.64-4.03-8.346-1.47-2.71-3.065-5.332-4.78-7.874-1.716-2.543-3.555-5.014-5.5-7.375-1.946-2.363-4-4.617-6.16-6.783-.55-.666-1.16-1.28-1.84-1.812-.68-.53-1.433-1-2.22-1.374-.785-.38-1.6-.65-2.47-.848-.87-.2-1.785-.316-2.72-.316-1.654 0-3.22.33-4.653.94-1.437.607-2.76 1.477-3.845 2.563-1.085 1.084-1.954 2.407-2.56 3.842-.61 1.436-.94 3-.94 4.656 0 .756.088 1.477.22 2.19.03.168.056.336.094.5.28 1.437.504 2.9.654 4.376.162 1.614.25 3.218.25 4.875s-.088 3.292-.25 4.905c-.166 1.613-.4 3.22-.72 4.78-.32 1.563-.72 3.09-1.188 4.594-.47 1.503-1.02 2.97-1.626 4.41-.607 1.432-1.26 2.824-2 4.184-.74 1.36-1.544 2.69-2.406 3.97-.862 1.275-1.803 2.53-2.78 3.716-.978 1.186-2.008 2.29-3.094 3.375-1.087 1.086-2.22 2.116-3.408 3.094-1.184.98-2.41 1.92-3.686 2.783-1.278.862-2.61 1.667-3.97 2.406-1.36.74-2.75 1.425-4.187 2.03-1.437.61-2.905 1.13-4.408 1.596-1.503.467-3.03.868-4.594 1.187-1.56.32-3.167.557-4.78.72-.518.053-1.04.09-1.563.126-.3-.02-.602-.048-.904-.064-1.56-.106-3.093-.356-4.56-.75-1.47-.393-2.876-.94-4.22-1.593-1.345-.652-2.62-1.4-3.81-2.282-1.196-.88-2.304-1.886-3.316-2.966-1.01-1.08-1.916-2.25-2.72-3.5-.8-1.25-1.497-2.577-2.06-3.97-.565-1.39-1.017-2.84-1.314-4.343-.296-1.505-.437-3.07-.437-4.657 0-2.146.24-4.17.654-6.064.437-1.1.834-2.21 1.19-3.345.465-1.504.834-3.033 1.154-4.595.214-1.054.38-2.136.53-3.22.073-.52.165-1.037.22-1.56.1-.982.145-1.95.186-2.94.03-.643.058-1.285.063-1.936 0-.83-.02-1.65-.065-2.47-.14-3.19-.58-6.313-1.312-9.313-.73-3-1.765-5.875-3.03-8.624-1.266-2.75-2.76-5.345-4.5-7.78-1.74-2.44-3.72-4.715-5.875-6.785-2.156-2.07-4.49-3.952-7-5.593-2.512-1.64-5.193-3.03-8-4.184-2.81-1.155-5.768-2.05-8.814-2.657-3.044-.605-6.18-.94-9.404-.94z" opacity=".534" fill="#067f07"/></clipPath><filter color-interpolation-filters="sRGB" id="k"><feGaussianBlur stdDeviation="10.872"/></filter><radialGradient cx="111.818" cy="102.182" r="120" fx="111.818" fy="102.182" xlink:href="#e" gradientUnits="userSpaceOnUse" gradientTransform="matrix(1.285 .004 -.004 1.35 -31.427 -36.925)"/><linearGradient id="e"><stop offset="0" stop-color="#e1e379"/><stop offset=".578" stop-color="#69c225"/><stop offset="1" stop-color="#067f07"/></linearGradient><clipPath id="l"><path d="M-143.97 480c-4.37 0-8.678.228-12.936.656-4.258.428-8.47 1.04-12.594 1.875-4.125.84-8.186 1.88-12.156 3.1-3.97 1.22-7.86 2.63-11.656 4.22-3.796 1.59-7.495 3.35-11.094 5.28-3.6 1.93-7.086 4.06-10.47 6.317-3.382 2.255-6.635 4.66-9.78 7.218-3.146 2.56-6.175 5.254-9.063 8.095-2.88 2.84-5.64 5.835-8.25 8.94-2.6 3.102-5.06 6.31-7.37 9.655-2.31 3.345-4.48 6.81-6.47 10.376-1.982 3.565-3.82 7.237-5.462 11-1.65 3.764-3.09 7.62-4.375 11.56-1.286 3.945-2.41 7.966-3.313 12.066-.9 4.1-1.593 8.295-2.09 12.53-.15 1.277-.14 2.59-.25 3.877.35-2.96.853-5.904 1.466-8.78.613-2.873 1.354-5.695 2.22-8.47.864-2.77 1.833-5.5 2.937-8.153 1.103-2.66 2.326-5.253 3.656-7.783 1.326-2.53 2.77-4.984 4.31-7.375 1.542-2.39 3.193-4.7 4.94-6.938 1.74-2.237 3.565-4.395 5.5-6.47 1.93-2.07 3.953-4.07 6.06-5.966 2.106-1.897 4.292-3.703 6.562-5.408 2.27-1.705 4.64-3.31 7.06-4.812 2.42-1.503 4.91-2.9 7.47-4.188 2.554-1.287 5.16-2.44 7.84-3.5 2.68-1.06 5.425-2.024 8.22-2.843 2.793-.82 5.64-1.5 8.53-2.064 2.894-.563 5.834-1.01 8.813-1.31 1.574-.323 3.187-.557 4.815-.72 1.626-.162 3.27-.25 4.936-.25 3.227 0 6.363.33 9.408.937 3.048.61 6.007 1.505 8.815 2.66 2.81 1.152 5.49 2.545 8 4.186 2.51 1.64 4.844 3.522 7 5.592 2.154 2.07 4.134 4.342 5.874 6.78 1.74 2.44 3.235 5.034 4.5 7.782 1.265 2.75 2.3 5.624 3.03 8.623.733 3 1.175 6.12 1.314 9.312.04.817.06 1.64.06 2.468-.005.65-.03 1.295-.06 1.94-.043.986-.09 1.956-.19 2.937-.164 1.615-.43 3.22-.75 4.78-.32 1.565-.69 3.09-1.156 4.597-.356 1.145-.778 2.27-1.22 3.375-.408 1.88-.624 3.9-.624 6.03 0 1.59.143 3.15.44 4.656.296 1.504.75 2.95 1.31 4.343.566 1.39 1.263 2.718 2.065 3.968s1.708 2.42 2.72 3.5c1.01 1.08 2.12 2.09 3.31 2.97 1.195.88 2.47 1.63 3.815 2.28 1.343.65 2.75 1.2 4.217 1.593 1.47.395 3 .644 4.565.75.27.015.54.046.81.064.554-.038 1.11-.07 1.657-.125 1.614-.17 3.22-.4 4.782-.72 1.56-.32 3.09-.72 4.59-1.19s2.97-.988 4.404-1.595c1.436-.61 2.828-1.295 4.188-2.034 1.36-.737 2.694-1.542 3.97-2.405 1.278-.86 2.5-1.802 3.688-2.78 1.186-.98 2.32-2.01 3.407-3.094 1.084-1.084 2.113-2.19 3.092-3.373.977-1.184 1.917-2.44 2.78-3.717.862-1.28 1.667-2.61 2.406-3.97.74-1.36 1.39-2.75 2-4.19.605-1.434 1.156-2.902 1.623-4.405.466-1.502.867-3.03 1.187-4.593.32-1.562.556-3.167.72-4.78.165-1.615.25-3.25.25-4.907 0-1.66-.085-3.265-.25-4.878-.15-1.477-.376-2.94-.655-4.376-.04-.164-.064-.332-.095-.5-.13-.713-.22-1.434-.22-2.19 0-1.654.33-3.22.94-4.653.608-1.437 1.478-2.76 2.564-3.845 1.085-1.086 2.408-1.955 3.843-2.56 1.436-.61 3-.94 4.657-.94.93 0 1.847.114 2.717.313.87.2 1.686.467 2.47.843.788.377 1.54.843 2.22 1.375.68.535 1.294 1.148 1.845 1.815 2.09 2.096 4.078 4.28 5.97 6.56 1.893 2.283 3.7 4.673 5.376 7.126 1.677 2.45 3.24 4.984 4.688 7.593 1.447 2.61 2.765 5.28 3.968 8.032 1.206 2.75 2.277 5.59 3.22 8.467.946 2.88 1.768 5.82 2.44 8.813.67 2.993 1.21 6.03 1.592 9.125.384 3.094.608 6.228.688 9.407-.084-4.345-.4-8.645-.906-12.874-.507-4.23-1.217-8.375-2.125-12.47-.91-4.09-1.99-8.126-3.28-12.06-1.29-3.935-2.79-7.775-4.44-11.532-1.65-3.757-3.48-7.41-5.47-10.97-1.99-3.556-4.127-7.006-6.437-10.343-2.31-3.337-4.766-6.56-7.374-9.656-2.61-3.095-5.366-6.07-8.25-8.905-2.89-2.835-5.92-5.54-9.065-8.093-3.144-2.554-6.4-4.968-9.78-7.22-3.38-2.25-6.873-4.35-10.47-6.28-3.596-1.928-7.3-3.667-11.094-5.25-3.79-1.584-7.69-3-11.654-4.22-3.967-1.218-8.006-2.26-12.126-3.09-4.12-.836-8.31-1.45-12.56-1.878-4.255-.428-8.574-.657-12.94-.657zm-32 128.063c-1.656 0-3.29.086-4.905.25-1.614.163-3.22.4-4.78.718-1.564.32-3.092.72-4.595 1.19-1.503.47-2.97.99-4.406 1.6-1.436.61-2.827 1.294-4.188 2.03-1.36.74-2.692 1.545-3.97 2.408-1.275.864-2.5 1.804-3.686 2.78-1.185.98-2.32 2.01-3.406 3.096-1.086 1.087-2.116 2.19-3.094 3.376-.978 1.185-1.92 2.442-2.78 3.72-.864 1.276-1.67 2.607-2.407 3.967-.74 1.36-1.393 2.753-2 4.19-.608 1.435-1.158 2.902-1.625 4.405-.468 1.504-.868 3.033-1.188 4.595-.32 1.562-.555 3.168-.72 4.78-.163 1.615-.25 3.25-.25 4.908 0 1.657.087 3.26.25 4.876.15 1.477.378 2.94.657 4.376.038.165.063.333.094.5.14.714.22 1.436.22 2.188 0 1.658-.33 3.22-.93 4.657-.606 1.437-1.475 2.76-2.56 3.845-1.086 1.085-2.408 1.954-3.844 2.562-1.435.61-3 .94-4.656.94-.93 0-1.85-.115-2.72-.314-.87-.2-1.68-.468-2.468-.844-.785-.377-1.54-.843-2.22-1.375-.68-.532-1.293-1.146-1.843-1.813-2.09-2.096-4.078-4.28-5.97-6.56-1.89-2.28-3.698-4.673-5.375-7.125-1.674-2.454-3.24-4.986-4.685-7.595-1.45-2.61-2.767-5.28-3.97-8.03-1.203-2.75-2.274-5.59-3.22-8.47-.943-2.88-1.765-5.82-2.436-8.813-.67-2.994-1.21-6.03-1.594-9.126-.384-3.092-.608-6.226-.69-9.405.086 4.35.4 8.65.908 12.877.505 4.23 1.214 8.378 2.123 12.47.91 4.09 1.99 8.13 3.28 12.063 1.29 3.933 2.79 7.775 4.44 11.53 1.65 3.756 3.48 7.413 5.47 10.97 1.99 3.556 4.13 7.007 6.44 10.343 2.31 3.338 4.795 6.56 7.404 9.658 2.61 3.096 5.33 6.07 8.22 8.907 2.886 2.832 5.918 5.54 9.06 8.09 3.146 2.553 6.4 4.938 9.78 7.188s6.875 4.355 10.47 6.28c3.598 1.928 7.3 3.7 11.095 5.283 3.79 1.582 7.69 2.97 11.655 4.187s8.005 2.26 12.125 3.093c4.12.83 8.31 1.45 12.562 1.876 4.254.424 8.573.654 12.938.654 4.37 0 8.683-.23 12.94-.654 4.255-.43 8.47-1.04 12.592-1.877 4.123-.835 8.157-1.875 12.125-3.095 3.97-1.22 7.865-2.637 11.66-4.22 3.792-1.587 7.494-3.35 11.092-5.28 3.6-1.93 7.086-4.03 10.47-6.28 3.38-2.257 6.635-4.667 9.78-7.22 3.144-2.56 6.175-5.258 9.062-8.097 2.888-2.835 5.64-5.803 8.25-8.903 2.61-3.1 5.067-6.315 7.376-9.655 2.31-3.34 4.48-6.815 6.47-10.375 1.987-3.56 3.82-7.21 5.466-10.97 1.65-3.76 3.12-7.624 4.407-11.563 1.286-3.938 2.375-7.966 3.28-12.06.905-4.098 1.62-8.268 2.125-12.5.504-4.236.797-8.527.876-12.877-.075 3.14-.313 6.253-.69 9.312-.37 3.058-.874 6.07-1.53 9.03-.65 2.963-1.45 5.868-2.372 8.72-.92 2.85-1.95 5.647-3.126 8.375-1.17 2.728-2.49 5.38-3.903 7.97-1.413 2.59-2.925 5.126-4.563 7.564-1.637 2.436-3.4 4.79-5.25 7.06-1.848 2.27-3.797 4.44-5.843 6.53-2.047 2.09-4.18 4.1-6.41 6-2.23 1.898-4.536 3.68-6.935 5.375-2.4 1.69-4.884 3.28-7.438 4.75-2.554 1.47-5.18 2.822-7.875 4.06-2.693 1.234-5.456 2.355-8.28 3.342-2.822.986-5.72 1.837-8.655 2.56-2.936.726-5.902 1.334-8.938 1.783-3.035.448-6.13.748-9.25.906-1.632.08-3.253.25-4.906.25-1.65 0-3.27-.17-4.906-.25-1.615-.165-3.22-.4-4.78-.72-1.565-.32-3.093-.72-4.596-1.19-1.502-.465-2.97-.984-4.405-1.59-1.436-.608-2.83-1.294-4.19-2.033-1.36-.74-2.69-1.542-3.97-2.405-1.273-.86-2.5-1.8-3.684-2.78-1.183-.98-2.32-2.01-3.404-3.093-1.084-1.086-2.114-2.19-3.092-3.375-.977-1.182-1.886-2.44-2.75-3.715-.862-1.277-1.7-2.61-2.437-3.97-.737-1.36-1.39-2.75-2-4.187-.606-1.437-1.156-2.905-1.624-4.408-.466-1.503-.835-3.03-1.155-4.594-.014-.08-.013-.17-.03-.25-.297-1.484-.562-3-.72-4.53-.09-.89-.144-1.786-.185-2.69-.04-.733-.06-1.473-.063-2.22v-.25c0-.73.03-1.46.066-2.19v-.03c.118-2.57.434-5.11.938-7.56.507-2.45 1.2-4.822 2.066-7.123.605-2.245.934-4.62.934-7.093 0-1.46-.124-2.89-.375-4.28-.25-1.395-.614-2.736-1.093-4.035-.48-1.3-1.066-2.567-1.75-3.75-.685-1.184-1.475-2.3-2.344-3.344-.87-1.044-1.843-2.02-2.874-2.905-1.03-.885-2.11-1.672-3.28-2.375-1.174-.703-2.434-1.315-3.72-1.81-1.29-.5-2.62-.89-4-1.16-.19.005-.376 0-.565 0z" opacity=".654" fill="#fcd93a" fill-opacity=".533"/></clipPath><filter color-interpolation-filters="sRGB" id="m"><feGaussianBlur stdDeviation="4.862"/></filter><clipPath id="n"><path d="M-143.97 480c-4.37 0-8.678.228-12.936.656-4.258.428-8.47 1.04-12.594 1.875-4.125.84-8.186 1.88-12.156 3.1-3.97 1.22-7.86 2.63-11.656 4.22-3.796 1.59-7.495 3.35-11.094 5.28-3.6 1.93-7.086 4.06-10.47 6.317-3.382 2.255-6.635 4.66-9.78 7.218-3.146 2.56-6.175 5.254-9.063 8.095-2.88 2.84-5.64 5.835-8.25 8.94-2.6 3.102-5.06 6.31-7.37 9.655-2.31 3.345-4.48 6.81-6.47 10.376-1.982 3.565-3.82 7.237-5.462 11-1.65 3.764-3.09 7.62-4.375 11.56-1.286 3.945-2.41 7.966-3.313 12.066-.9 4.1-1.593 8.295-2.09 12.53-.15 1.277-.14 2.59-.25 3.877.35-2.96.853-5.904 1.466-8.78.613-2.873 1.354-5.695 2.22-8.47.864-2.77 1.833-5.5 2.937-8.153 1.103-2.66 2.326-5.253 3.656-7.783 1.326-2.53 2.77-4.984 4.31-7.375 1.542-2.39 3.193-4.7 4.94-6.938 1.74-2.237 3.565-4.395 5.5-6.47 1.93-2.07 3.953-4.07 6.06-5.966 2.106-1.897 4.292-3.703 6.562-5.408 2.27-1.705 4.64-3.31 7.06-4.812 2.42-1.503 4.91-2.9 7.47-4.188 2.554-1.287 5.16-2.44 7.84-3.5 2.68-1.06 5.425-2.024 8.22-2.843 2.793-.82 5.64-1.5 8.53-2.064 2.894-.563 5.834-1.01 8.813-1.31 1.574-.323 3.187-.557 4.815-.72 1.626-.162 3.27-.25 4.936-.25 3.227 0 6.363.33 9.408.937 3.048.61 6.007 1.505 8.815 2.66 2.81 1.152 5.49 2.545 8 4.186 2.51 1.64 4.844 3.522 7 5.592 2.154 2.07 4.134 4.342 5.874 6.78 1.74 2.44 3.235 5.034 4.5 7.782 1.265 2.75 2.3 5.624 3.03 8.623.733 3 1.175 6.12 1.314 9.312.04.817.06 1.64.06 2.468-.005.65-.03 1.295-.06 1.94-.043.986-.09 1.956-.19 2.937-.164 1.615-.43 3.22-.75 4.78-.32 1.565-.69 3.09-1.156 4.597-.356 1.145-.778 2.27-1.22 3.375-.408 1.88-.624 3.9-.624 6.03 0 1.59.143 3.15.44 4.656.296 1.504.75 2.95 1.31 4.343.566 1.39 1.263 2.718 2.065 3.968s1.708 2.42 2.72 3.5c1.01 1.08 2.12 2.09 3.31 2.97 1.195.88 2.47 1.63 3.815 2.28 1.343.65 2.75 1.2 4.217 1.593 1.47.395 3 .644 4.565.75.27.015.54.046.81.064.554-.038 1.11-.07 1.657-.125 1.614-.17 3.22-.4 4.782-.72 1.56-.32 3.09-.72 4.59-1.19s2.97-.988 4.404-1.595c1.436-.61 2.828-1.295 4.188-2.034 1.36-.737 2.694-1.542 3.97-2.405 1.278-.86 2.5-1.802 3.688-2.78 1.186-.98 2.32-2.01 3.407-3.094 1.084-1.084 2.113-2.19 3.092-3.373.977-1.184 1.917-2.44 2.78-3.717.862-1.28 1.667-2.61 2.406-3.97.74-1.36 1.39-2.75 2-4.19.605-1.434 1.156-2.902 1.623-4.405.466-1.502.867-3.03 1.187-4.593.32-1.562.556-3.167.72-4.78.165-1.615.25-3.25.25-4.907 0-1.66-.085-3.265-.25-4.878-.15-1.477-.376-2.94-.655-4.376-.04-.164-.064-.332-.095-.5-.13-.713-.22-1.434-.22-2.19 0-1.654.33-3.22.94-4.653.608-1.437 1.478-2.76 2.564-3.845 1.085-1.086 2.408-1.955 3.843-2.56 1.436-.61 3-.94 4.657-.94.93 0 1.847.114 2.717.313.87.2 1.686.467 2.47.843.788.377 1.54.843 2.22 1.375.68.535 1.294 1.148 1.845 1.815 2.09 2.096 4.078 4.28 5.97 6.56 1.893 2.283 3.7 4.673 5.376 7.126 1.677 2.45 3.24 4.984 4.688 7.593 1.447 2.61 2.765 5.28 3.968 8.032 1.206 2.75 2.277 5.59 3.22 8.467.946 2.88 1.768 5.82 2.44 8.813.67 2.993 1.21 6.03 1.592 9.125.384 3.094.608 6.228.688 9.407-.084-4.345-.4-8.645-.906-12.874-.507-4.23-1.217-8.375-2.125-12.47-.91-4.09-1.99-8.126-3.28-12.06-1.29-3.935-2.79-7.775-4.44-11.532-1.65-3.757-3.48-7.41-5.47-10.97-1.99-3.556-4.127-7.006-6.437-10.343-2.31-3.337-4.766-6.56-7.374-9.656-2.61-3.095-5.366-6.07-8.25-8.905-2.89-2.835-5.92-5.54-9.065-8.093-3.144-2.554-6.4-4.968-9.78-7.22-3.38-2.25-6.873-4.35-10.47-6.28-3.596-1.928-7.3-3.667-11.094-5.25-3.79-1.584-7.69-3-11.654-4.22-3.967-1.218-8.006-2.26-12.126-3.09-4.12-.836-8.31-1.45-12.56-1.878-4.255-.428-8.574-.657-12.94-.657zm-32 128.063c-1.656 0-3.29.086-4.905.25-1.614.163-3.22.4-4.78.718-1.564.32-3.092.72-4.595 1.19-1.503.47-2.97.99-4.406 1.6-1.436.61-2.827 1.294-4.188 2.03-1.36.74-2.692 1.545-3.97 2.408-1.275.864-2.5 1.804-3.686 2.78-1.185.98-2.32 2.01-3.406 3.096-1.086 1.087-2.116 2.19-3.094 3.376-.978 1.185-1.92 2.442-2.78 3.72-.864 1.276-1.67 2.607-2.407 3.967-.74 1.36-1.393 2.753-2 4.19-.608 1.435-1.158 2.902-1.625 4.405-.468 1.504-.868 3.033-1.188 4.595-.32 1.562-.555 3.168-.72 4.78-.163 1.615-.25 3.25-.25 4.908 0 1.657.087 3.26.25 4.876.15 1.477.378 2.94.657 4.376.038.165.063.333.094.5.14.714.22 1.436.22 2.188 0 1.658-.33 3.22-.93 4.657-.606 1.437-1.475 2.76-2.56 3.845-1.086 1.085-2.408 1.954-3.844 2.562-1.435.61-3 .94-4.656.94-.93 0-1.85-.115-2.72-.314-.87-.2-1.68-.468-2.468-.844-.785-.377-1.54-.843-2.22-1.375-.68-.532-1.293-1.146-1.843-1.813-2.09-2.096-4.078-4.28-5.97-6.56-1.89-2.28-3.698-4.673-5.375-7.125-1.674-2.454-3.24-4.986-4.685-7.595-1.45-2.61-2.767-5.28-3.97-8.03-1.203-2.75-2.274-5.59-3.22-8.47-.943-2.88-1.765-5.82-2.436-8.813-.67-2.994-1.21-6.03-1.594-9.126-.384-3.092-.608-6.226-.69-9.405.086 4.35.4 8.65.908 12.877.505 4.23 1.214 8.378 2.123 12.47.91 4.09 1.99 8.13 3.28 12.063 1.29 3.933 2.79 7.775 4.44 11.53 1.65 3.756 3.48 7.413 5.47 10.97 1.99 3.556 4.13 7.007 6.44 10.343 2.31 3.338 4.795 6.56 7.404 9.658 2.61 3.096 5.33 6.07 8.22 8.907 2.886 2.832 5.918 5.54 9.06 8.09 3.146 2.553 6.4 4.938 9.78 7.188s6.875 4.355 10.47 6.28c3.598 1.928 7.3 3.7 11.095 5.283 3.79 1.582 7.69 2.97 11.655 4.187s8.005 2.26 12.125 3.093c4.12.83 8.31 1.45 12.562 1.876 4.254.424 8.573.654 12.938.654 4.37 0 8.683-.23 12.94-.654 4.255-.43 8.47-1.04 12.592-1.877 4.123-.835 8.157-1.875 12.125-3.095 3.97-1.22 7.865-2.637 11.66-4.22 3.792-1.587 7.494-3.35 11.092-5.28 3.6-1.93 7.086-4.03 10.47-6.28 3.38-2.257 6.635-4.667 9.78-7.22 3.144-2.56 6.175-5.258 9.062-8.097 2.888-2.835 5.64-5.803 8.25-8.903 2.61-3.1 5.067-6.315 7.376-9.655 2.31-3.34 4.48-6.815 6.47-10.375 1.987-3.56 3.82-7.21 5.466-10.97 1.65-3.76 3.12-7.624 4.407-11.563 1.286-3.938 2.375-7.966 3.28-12.06.905-4.098 1.62-8.268 2.125-12.5.504-4.236.797-8.527.876-12.877-.075 3.14-.313 6.253-.69 9.312-.37 3.058-.874 6.07-1.53 9.03-.65 2.963-1.45 5.868-2.372 8.72-.92 2.85-1.95 5.647-3.126 8.375-1.17 2.728-2.49 5.38-3.903 7.97-1.413 2.59-2.925 5.126-4.563 7.564-1.637 2.436-3.4 4.79-5.25 7.06-1.848 2.27-3.797 4.44-5.843 6.53-2.047 2.09-4.18 4.1-6.41 6-2.23 1.898-4.536 3.68-6.935 5.375-2.4 1.69-4.884 3.28-7.438 4.75-2.554 1.47-5.18 2.822-7.875 4.06-2.693 1.234-5.456 2.355-8.28 3.342-2.822.986-5.72 1.837-8.655 2.56-2.936.726-5.902 1.334-8.938 1.783-3.035.448-6.13.748-9.25.906-1.632.08-3.253.25-4.906.25-1.65 0-3.27-.17-4.906-.25-1.615-.165-3.22-.4-4.78-.72-1.565-.32-3.093-.72-4.596-1.19-1.502-.465-2.97-.984-4.405-1.59-1.436-.608-2.83-1.294-4.19-2.033-1.36-.74-2.69-1.542-3.97-2.405-1.273-.86-2.5-1.8-3.684-2.78-1.183-.98-2.32-2.01-3.404-3.093-1.084-1.086-2.114-2.19-3.092-3.375-.977-1.182-1.886-2.44-2.75-3.715-.862-1.277-1.7-2.61-2.437-3.97-.737-1.36-1.39-2.75-2-4.187-.606-1.437-1.156-2.905-1.624-4.408-.466-1.503-.835-3.03-1.155-4.594-.014-.08-.013-.17-.03-.25-.297-1.484-.562-3-.72-4.53-.09-.89-.144-1.786-.185-2.69-.04-.733-.06-1.473-.063-2.22v-.25c0-.73.03-1.46.066-2.19v-.03c.118-2.57.434-5.11.938-7.56.507-2.45 1.2-4.822 2.066-7.123.605-2.245.934-4.62.934-7.093 0-1.46-.124-2.89-.375-4.28-.25-1.395-.614-2.736-1.093-4.035-.48-1.3-1.066-2.567-1.75-3.75-.685-1.184-1.475-2.3-2.344-3.344-.87-1.044-1.843-2.02-2.874-2.905-1.03-.885-2.11-1.672-3.28-2.375-1.174-.703-2.434-1.315-3.72-1.81-1.29-.5-2.62-.89-4-1.16-.19.005-.376 0-.565 0z" opacity=".654" fill="#fcd93a" fill-opacity=".533"/></clipPath><filter color-interpolation-filters="sRGB" id="o"><feGaussianBlur stdDeviation="14.587"/></filter><filter x="-.217" y="-.531" width="1.435" height="2.063" color-interpolation-filters="sRGB" id="f"><feGaussianBlur stdDeviation="15.943"/></filter></defs><path d="M128 168c-.558 0-1.102.024-1.656.03-19.85.255-37.45 5.002-48.844 12.314C54.834 184.684 40 191.872 40 200c0 5.38 6.474 10.373 17.438 14.375 6.55 14.382 34.8 25.252 68.906 25.594.55 0 1.102.03 1.656.03.554 0 1.106-.03 1.656-.03 34.107-.35 62.355-11.22 68.906-25.6 10.964-4 17.438-8.99 17.438-14.37 0-8.13-14.834-15.317-37.5-19.658-11.237-7.21-28.514-11.94-48.03-12.313-.27-.01-.543.01-.814 0-.545-.03-1.104-.03-1.656-.03z" transform="matrix(1.02 0 0 .876 -2.58 20.129)" opacity=".958" filter="url(#f)"/><path d="M240 124a120 124 0 1 1-240 0 120 124 0 1 1 240 0z" transform="matrix(.933 0 0 .903 16 0)" fill="url(#g)"/><path d="M100-163.945c-1.446 0-2.864.146-4.293.218C51.32-161.482 16-124.89 16-79.945c0 23.113 9.36 43.987 24.473 59.144 1.926 2.33 4.83 3.8 8.093 3.8 5.8 0 10.5-4.7 10.5-10.5 0-.66-.075-1.29-.19-1.92-.028-.15-.05-.296-.083-.44-.244-1.257-.443-2.537-.574-3.83-.15-1.41-.22-2.815-.22-4.265 0-1.45.07-2.88.22-4.293.14-1.41.34-2.817.62-4.184s.63-2.704 1.04-4.02c.41-1.315.89-2.6 1.42-3.855.532-1.257 1.104-2.475 1.75-3.665.647-1.19 1.35-2.354 2.106-3.472.756-1.117 1.58-2.216 2.435-3.253.857-1.038 1.758-2.004 2.708-2.954.95-.95 1.942-1.85 2.98-2.707 1.036-.858 2.11-1.68 3.226-2.435 1.116-.756 2.28-1.46 3.47-2.107 1.19-.645 2.41-1.245 3.665-1.776 1.257-.53 2.54-.986 3.856-1.395 1.316-.406 2.653-.756 4.02-1.036 1.367-.28 2.77-.486 4.184-.63 1.413-.143 2.844-.218 4.294-.218 1.45 0 2.88-.104 4.29-.247 1.413-.148 2.818-.35 4.185-.63s2.702-.606 4.02-1.015c1.312-.41 2.596-.89 3.853-1.42 1.257-.53 2.474-1.13 3.665-1.778 1.19-.65 2.354-1.353 3.47-2.108 1.118-.754 2.19-1.55 3.228-2.406 1.037-.857 2.03-1.758 2.98-2.708.95-.95 1.85-1.945 2.707-2.98.855-1.04 1.65-2.14 2.41-3.256.75-1.116 1.48-2.253 2.13-3.444.644-1.19 1.22-2.436 1.75-3.69.53-1.258 1.01-2.54 1.42-3.858.41-1.315.732-2.652 1.012-4.02.28-1.366.512-2.77.655-4.183.144-1.413.22-2.817.22-4.266 0-1.45-.076-2.88-.22-4.295-.143-1.412-.376-2.817-.656-4.184s-.604-2.7-1.013-4.02c-.41-1.312-.89-2.6-1.42-3.852-.53-1.256-1.1-2.474-1.75-3.664-.643-1.19-1.375-2.357-2.13-3.475-.754-1.118-1.55-2.217-2.406-3.254-.857-1.038-1.758-2.004-2.708-2.954-.95-.95-1.943-1.85-2.98-2.707-1.037-.856-2.11-1.678-3.227-2.433-1.12-.757-2.284-1.46-3.474-2.108-1.19-.647-2.408-1.247-3.664-1.778-1.257-.53-2.54-.986-3.856-1.395-1.315-.406-2.652-.756-4.02-1.036-1.366-.28-2.77-.485-4.183-.63-1.43-.07-2.847-.217-4.293-.217zm107.434 20.972c-5.8 0-10.5 4.7-10.5 10.5 0 .66.075 1.29.19 1.914.028.15.05.3.083.44.244 1.26.443 2.54.574 3.83.15 1.41.22 2.82.22 4.27 0 1.45-.07 2.88-.22 4.295-.14 1.41-.34 2.816-.62 4.183s-.63 2.705-1.04 4.02c-.41 1.315-.89 2.6-1.42 3.855-.53 1.257-1.103 2.475-1.75 3.665-.646 1.19-1.35 2.357-2.105 3.474-.755 1.12-1.58 2.22-2.434 3.256-.856 1.036-1.757 2.002-2.707 2.952-.95.95-1.943 1.85-2.98 2.707-1.037.855-2.11 1.68-3.227 2.433-1.116.754-2.28 1.458-3.47 2.105s-2.41 1.247-3.665 1.778c-1.256.535-2.54.99-3.855 1.398-1.315.41-2.652.76-4.02 1.04-1.367.28-2.77.486-4.183.63-1.41.14-2.842.22-4.292.22-1.45 0-2.88.1-4.29.243-1.413.14-2.818.347-4.185.627s-2.704.602-4.02 1.01c-1.314.41-2.6.892-3.855 1.423-1.257.534-2.474 1.133-3.665 1.78-1.19.646-2.356 1.35-3.473 2.105-1.12.755-2.19 1.55-3.228 2.406-1.038.858-2.03 1.76-2.98 2.71-.95.95-1.85 1.943-2.708 2.98-.857 1.037-1.653 2.137-2.41 3.254-.75 1.115-1.483 2.253-2.13 3.443-.646 1.19-1.22 2.437-1.75 3.69-.53 1.26-1.012 2.544-1.42 3.86-.41 1.315-.734 2.65-1.014 4.02-.28 1.366-.513 2.77-.656 4.183-.145 1.412-.22 2.816-.22 4.266 0 1.45.075 2.88.22 4.292.142 1.41.375 2.815.655 4.182s.6 2.705 1.01 4.02c.41 1.315.89 2.6 1.42 3.855.53 1.255 1.1 2.473 1.75 3.663.643 1.19 1.375 2.357 2.13 3.474.754 1.12 1.55 2.22 2.406 3.256.856 1.037 1.757 2.003 2.707 2.953.95.95 1.943 1.85 2.98 2.706 1.037.854 2.11 1.68 3.227 2.432 1.12.753 2.282 1.457 3.472 2.104s2.41 1.24 3.665 1.77c1.255.533 2.54.987 3.854 1.396 1.317.41 2.654.76 4.02 1.04 1.368.28 2.77.485 4.185.628 1.43.073 2.846.22 4.293.22s2.865-.147 4.294-.22C204.68 1.51 240-35.08 240-80.025c0-23.115-9.36-43.99-24.473-59.146-1.926-2.335-4.83-3.8-8.093-3.8z" fill="url(#h)" transform="translate(0 192)"/><path d="M100-164.253c-23.196 0-42 18.804-42 42 0 22.517 17.72 40.89 39.977 41.945 10.9.774 19.523 9.96 19.523 21.055 0 2.165-.29 4.242-.82 6.207-1.733 4.602-2.68 9.585-2.68 14.793 0 23.196 18.804 42 42 42s42-18.804 42-42c0-22.48-17.663-40.834-39.867-41.945-10.934-.748-19.633-9.94-19.633-21.055 0-2.05.225-3.985.656-5.77 1.838-4.722 2.844-9.858 2.844-15.23 0-23.196-18.804-42-42-42zm33.633 67.184c-.397.53-.81 1.03-1.23 1.54.415-.502.838-1.01 1.23-1.53zm-3.938 4.52c-.474.476-.952.944-1.45 1.396-.453.41-.922.81-1.393 1.203.47-.393.94-.79 1.394-1.203.497-.45.974-.92 1.45-1.394zM102.023-80.3c-.67.03-1.345.054-2.023.054.68 0 1.352-.023 2.023-.055zm53.977.05c-.688 0-1.37.02-2.05.054.682-.033 1.36-.055 2.05-.055z" fill="url(#i)" transform="translate(0 192)"/><path d="M-336 354v280H16V354h-352zm144 39.75c3.225 0 6.36.33 9.406.938 3.046.606 6.005 1.502 8.813 2.656 2.8 1.153 5.48 2.546 8 4.187 2.51 1.65 4.84 3.53 7 5.6 2.15 2.07 4.13 4.347 5.87 6.78 1.74 2.44 3.23 5.038 4.5 7.787 1.26 2.748 2.3 5.625 3.03 8.625s1.17 6.12 1.31 9.31c.04.82.06 1.64.06 2.47-.005.65-.032 1.29-.063 1.937-.04.99-.087 1.957-.187 2.94-.053.522-.145 1.04-.22 1.56-.15 1.083-.314 2.165-.53 3.22-.32 1.56-.69 3.09-1.156 4.593-.355 1.135-.75 2.245-1.19 3.343-.413 1.894-.655 3.918-.655 6.063 0 1.587.14 3.15.436 4.655.294 1.507.746 2.95 1.31 4.346.563 1.393 1.26 2.72 2.062 3.97.8 1.25 1.705 2.42 2.717 3.5 1.014 1.08 2.12 2.088 3.315 2.968 1.19.88 2.467 1.63 3.81 2.28 1.346.65 2.75 1.2 4.22 1.593 1.468.395 3 .645 4.56.75.305.017.608.043.91.064.52-.036 1.044-.072 1.56-.125 1.615-.163 3.22-.4 4.78-.72 1.565-.317 3.093-.72 4.596-1.185 1.506-.47 2.974-.987 4.41-1.594 1.435-.603 2.827-1.29 4.187-2.03 1.36-.74 2.692-1.54 3.97-2.404 1.276-.86 2.5-1.802 3.686-2.78 1.187-.98 2.322-2.01 3.407-3.093 1.087-1.086 2.117-2.19 3.095-3.375.98-1.185 1.92-2.44 2.782-3.72.863-1.275 1.668-2.61 2.407-3.97.74-1.36 1.393-2.75 2-4.185.607-1.435 1.157-2.903 1.625-4.406.467-1.502.87-3.03 1.187-4.592.32-1.562.556-3.167.72-4.78.164-1.614.25-3.25.25-4.907s-.086-3.26-.25-4.875c-.15-1.476-.377-2.94-.656-4.375-.04-.167-.064-.335-.095-.5-.13-.716-.22-1.437-.22-2.19 0-1.657.333-3.22.94-4.657.607-1.435 1.476-2.76 2.56-3.844 1.088-1.086 2.41-1.956 3.846-2.563 1.437-.607 3-.938 4.657-.938.932 0 1.85.113 2.72.312.87.2 1.682.466 2.47.843.783.377 1.537.844 2.217 1.376.68.53 1.294 1.145 1.844 1.81 2.16 2.167 4.212 4.42 6.157 6.78 1.948 2.364 3.787 4.835 5.5 7.378 1.718 2.54 3.314 5.165 4.784 7.873 1.47 2.707 2.82 5.485 4.03 8.343 1.207 2.86 2.287 5.79 3.22 8.783.93 2.99 1.705 6.045 2.342 9.156.635 3.11 1.11 6.286 1.436 9.5.326 3.214.5 6.48.5 9.78 0 3.21-.16 6.37-.47 9.5-.307 3.13-.772 6.22-1.374 9.25-.6 3.033-1.34 6.017-2.22 8.94-.88 2.92-1.885 5.796-3.03 8.592-1.142 2.795-2.42 5.5-3.81 8.156-1.394 2.658-2.903 5.25-4.532 7.75-1.628 2.5-3.37 4.92-5.218 7.25-1.85 2.334-3.82 4.6-5.876 6.75-2.055 2.15-4.194 4.206-6.44 6.158-2.244 1.95-4.578 3.793-7 5.53-2.42 1.74-4.947 3.365-7.53 4.877-2.583 1.512-5.24 2.917-7.97 4.19-2.728 1.27-5.512 2.42-8.374 3.436-2.86 1.015-5.802 1.88-8.78 2.625-2.98.747-6.012 1.355-9.095 1.815-3.08.46-6.202.78-9.373.94-1.63.083-3.25.25-4.902.25-1.653 0-3.274-.167-4.906-.25-1.615-.164-3.22-.4-4.78-.72-1.565-.318-3.093-.72-4.596-1.186-1.505-.468-2.973-.987-4.408-1.594-1.437-.606-2.83-1.29-4.19-2.03-1.36-.74-2.693-1.544-3.97-2.407-1.277-.862-2.5-1.803-3.687-2.78-1.187-.98-2.322-2.01-3.407-3.095-1.088-1.087-2.118-2.19-3.096-3.377-.98-1.183-1.89-2.44-2.75-3.72-.862-1.273-1.7-2.61-2.44-3.97-.736-1.36-1.39-2.75-2-4.183-.604-1.437-1.154-2.905-1.622-4.408-.467-1.505-.836-3.03-1.156-4.595-.32-1.562-.586-3.167-.75-4.78-.09-.89-.146-1.787-.188-2.688-.04-.738-.06-1.477-.063-2.22v-.25c0-.745.03-1.484.064-2.22.118-2.574.434-5.11.938-7.56.505-2.455 1.197-4.826 2.064-7.127.607-2.246.937-4.62.937-7.094 0-1.464-.124-2.89-.375-4.28-.25-1.395-.614-2.764-1.094-4.065-.476-1.3-1.092-2.53-1.78-3.72-.684-1.182-1.44-2.324-2.31-3.37-.87-1.05-1.844-2.02-2.877-2.91-1.032-.887-2.14-1.67-3.312-2.375-1.17-.703-2.396-1.315-3.687-1.81-1.29-.5-2.645-.89-4.03-1.16-.18.003-.354.03-.532.03-1.656 0-3.292.088-4.905.25-1.613.166-3.22.4-4.78.72-1.563.32-3.09.72-4.594 1.188-1.505.467-2.97.986-4.408 1.594-1.436.61-2.828 1.294-4.188 2.03-1.36.74-2.692 1.547-3.97 2.41-1.276.864-2.5 1.804-3.686 2.782-1.187.98-2.322 2.006-3.407 3.092-1.085 1.086-2.115 2.19-3.093 3.375-.98 1.187-1.92 2.443-2.784 3.72-.866 1.277-1.67 2.608-2.41 3.97-.738 1.36-1.39 2.75-2 4.186-.606 1.44-1.156 2.906-1.624 4.41-.47 1.502-.87 3.03-1.19 4.593-.32 1.563-.556 3.17-.72 4.78-.164 1.615-.25 3.25-.25 4.91 0 1.655.086 3.26.25 4.873.15 1.475.377 2.94.656 4.374.037.166.062.333.093.5.13.715.22 1.436.22 2.188 0 1.658-.334 3.222-.94 4.657s-1.478 2.755-2.56 3.84c-1.09 1.088-2.41 1.957-3.847 2.565-1.436.607-3 .937-4.656.937-.932 0-1.85-.113-2.72-.31-.87-.2-1.682-.47-2.47-.846-.783-.375-1.537-.842-2.217-1.374-.68-.532-1.294-1.146-1.844-1.813-2.16-2.166-4.212-4.42-6.16-6.78-1.946-2.364-3.785-4.834-5.5-7.377-1.716-2.54-3.31-5.165-4.78-7.873-1.47-2.71-2.825-5.487-4.033-8.345-1.208-2.858-2.288-5.79-3.22-8.78-.93-2.994-1.706-6.047-2.343-9.158-.638-3.11-1.11-6.285-1.44-9.5-.325-3.213-.5-6.48-.5-9.78 0-3.114.148-6.182.438-9.22.29-3.036.713-6.052 1.28-9 .565-2.946 1.262-5.843 2.092-8.687.83-2.843 1.795-5.616 2.875-8.343 1.08-2.728 2.275-5.403 3.59-8 1.32-2.598 2.776-5.14 4.316-7.594 1.54-2.453 3.19-4.826 4.938-7.124 1.75-2.3 3.586-4.497 5.532-6.626 1.947-2.13 3.996-4.18 6.125-6.124 2.13-1.946 4.33-3.812 6.627-5.563 2.3-1.75 4.7-3.395 7.156-4.936 2.453-1.54 4.962-2.962 7.56-4.28 2.6-1.32 5.273-2.51 8-3.594 2.73-1.083 5.53-2.07 8.375-2.906 2.843-.834 5.74-1.522 8.687-2.094 2.946-.57 5.932-1.015 8.97-1.312 3.05-.606 6.21-.936 9.436-.936z" transform="matrix(.875 0 0 .875 268 -315)" clip-path="url(#j)" opacity=".654" fill="#12396d" filter="url(#k)"/><path d="M-368 416v400H80V416h-448zm224.03 64c4.367 0 8.686.23 12.94.656 4.252.427 8.44 1.042 12.56 1.875 4.12.84 8.16 1.88 12.126 3.1 3.966 1.22 7.865 2.64 11.656 4.22 3.792 1.58 7.498 3.32 11.094 5.25 3.597 1.93 7.09 4.03 10.47 6.28 3.38 2.25 6.636 4.67 9.78 7.22 3.144 2.55 6.176 5.26 9.063 8.09 2.88 2.84 5.64 5.81 8.25 8.91 2.6 3.098 5.06 6.32 7.37 9.658 2.31 3.338 4.442 6.788 6.432 10.345 1.99 3.557 3.82 7.21 5.47 10.968s3.146 7.598 4.437 11.533c1.29 3.932 2.372 7.97 3.28 12.06.91 4.09 1.62 8.24 2.126 12.47.506 4.226.822 8.526.906 12.872-.08-3.18-.305-6.312-.69-9.405-.382-3.094-.92-6.133-1.592-9.126-.67-2.995-1.493-5.934-2.44-8.814-.942-2.88-2.013-5.72-3.22-8.47-1.2-2.75-2.52-5.423-3.965-8.03-1.446-2.61-3.01-5.14-4.687-7.595-1.674-2.453-3.48-4.843-5.373-7.125-1.89-2.284-3.876-4.466-5.968-6.564-.55-.667-1.166-1.28-1.845-1.813-.68-.53-1.434-.996-2.22-1.373-.786-.377-1.6-.645-2.47-.844-.87-.2-1.786-.313-2.72-.313-1.654 0-3.22.334-4.654.94s-2.757 1.477-3.842 2.56c-1.087 1.09-1.957 2.41-2.564 3.847-.607 1.435-.94 3-.94 4.655 0 .754.09 1.475.22 2.19.03.166.057.334.095.5.28 1.434.506 2.898.656 4.374.167 1.61.25 3.215.25 4.872s-.083 3.29-.25 4.907c-.16 1.614-.396 3.22-.716 4.78-.32 1.564-.72 3.092-1.187 4.595-.468 1.504-1.02 2.97-1.626 4.407-.606 1.435-1.26 2.827-2 4.187-.74 1.36-1.543 2.693-2.405 3.97-.866 1.276-1.806 2.533-2.78 3.72-.98 1.184-2.01 2.287-3.098 3.373-1.09 1.09-2.224 2.12-3.41 3.098-1.185.98-2.41 1.92-3.687 2.78-1.278.866-2.61 1.67-3.97 2.41-1.36.738-2.75 1.424-4.187 2.03-1.438.608-2.905 1.127-4.408 1.595-1.504.468-3.03.868-4.594 1.188-1.563.32-3.17.556-4.78.72-.55.055-1.104.087-1.657.125-.27-.02-.54-.05-.81-.064-1.564-.108-3.097-.357-4.565-.75s-2.876-.94-4.22-1.594c-1.345-.652-2.62-1.4-3.81-2.282-1.196-.88-2.304-1.888-3.316-2.968-1.01-1.08-1.918-2.25-2.72-3.5s-1.5-2.577-2.063-3.97c-.563-1.39-1.016-2.838-1.31-4.343-.3-1.506-.44-3.07-.44-4.657 0-2.133.216-4.15.625-6.033.44-1.105.862-2.23 1.22-3.375.465-1.502.835-3.03 1.154-4.592.32-1.565.587-3.17.75-4.784.1-.98.148-1.95.19-2.938.03-.647.056-1.29.06-1.94 0-.83-.02-1.65-.06-2.47-.14-3.19-.582-6.316-1.314-9.315-.73-2.998-1.766-5.875-3.03-8.624-1.266-2.747-2.76-5.34-4.5-7.78-1.74-2.44-3.72-4.71-5.876-6.78-2.155-2.07-4.49-3.954-7-5.595-2.51-1.64-5.192-3.033-8-4.187s-5.767-2.05-8.813-2.658c-3.044-.606-6.18-.937-9.405-.937-1.667 0-3.31.09-4.937.25s-3.24.396-4.81.72c-2.98.3-5.92.746-8.81 1.312-2.894.566-5.74 1.243-8.532 2.063-2.793.82-5.537 1.785-8.22 2.844-2.68 1.06-5.285 2.212-7.842 3.5-2.557 1.286-5.05 2.684-7.47 4.187-2.418 1.504-4.792 3.11-7.06 4.814-2.27 1.703-4.457 3.51-6.564 5.405-2.108 1.895-4.13 3.896-6.06 5.97-1.935 2.073-3.76 4.23-5.5 6.47-1.747 2.24-3.398 4.546-4.94 6.94-1.54 2.39-2.984 4.842-4.31 7.372-1.33 2.53-2.556 5.123-3.66 7.78-1.103 2.658-2.073 5.385-2.937 8.157-.865 2.77-1.606 5.592-2.22 8.47-.612 2.87-1.118 5.814-1.467 8.78.112-1.288.1-2.6.25-3.877.5-4.238 1.19-8.433 2.093-12.53.906-4.1 2.03-8.123 3.316-12.065 1.285-3.94 2.727-7.797 4.375-11.56 1.647-3.764 3.48-7.436 5.468-11 1.99-3.564 4.16-7.03 6.47-10.375 2.308-3.345 4.766-6.554 7.374-9.658 2.61-3.104 5.368-6.097 8.25-8.938 2.89-2.84 5.92-5.538 9.068-8.097 3.145-2.56 6.398-4.963 9.78-7.22 3.384-2.254 6.87-4.38 10.47-6.31 3.6-1.933 7.298-3.695 11.094-5.282 3.795-1.586 7.686-2.997 11.656-4.22 3.97-1.22 8.03-2.257 12.156-3.092 4.127-.834 8.338-1.446 12.596-1.874 4.258-.43 8.566-.656 12.937-.656zm-32 128.063c.19 0 .376.003.564 0 1.383.27 2.712.658 4 1.156 1.288.49 2.548 1.1 3.72 1.81 1.17.7 2.25 1.49 3.28 2.37 1.03.883 2.006 1.86 2.875 2.904.86 1.045 1.65 2.16 2.34 3.343.68 1.184 1.27 2.452 1.75 3.75.48 1.3.84 2.64 1.09 4.032.25 1.39.372 2.82.372 4.28 0 2.474-.33 4.85-.937 7.094-.867 2.3-1.56 4.674-2.063 7.127-.502 2.453-.82 4.988-.935 7.563v.03c-.034.724-.064 1.452-.064 2.19v.246c.004.74.025 1.48.063 2.216.04.9.096 1.8.186 2.687.16 1.53.424 3.048.72 4.53.018.085.017.17.03.25.32 1.566.69 3.094 1.16 4.597.467 1.504 1.017 2.97 1.624 4.407.61 1.438 1.263 2.83 2 4.19.74 1.36 1.576 2.693 2.44 3.97.863 1.276 1.772 2.533 2.75 3.72.98 1.184 2.01 2.287 3.094 3.373 1.086 1.086 2.22 2.116 3.407 3.094 1.186.978 2.41 1.92 3.688 2.78 1.28.864 2.61 1.67 3.97 2.407 1.36.74 2.75 1.426 4.19 2.034 1.434.606 2.902 1.125 4.405 1.592 1.504.466 3.03.866 4.595 1.186 1.56.32 3.166.556 4.78.72 1.633.08 3.253.25 4.906.25 1.656 0 3.277-.17 4.91-.25 3.12-.16 6.217-.46 9.25-.907 3.04-.45 6.004-1.057 8.94-1.78 2.936-.726 5.833-1.577 8.656-2.564 2.824-.987 5.587-2.11 8.282-3.344 2.695-1.236 5.32-2.59 7.874-4.063 2.555-1.47 5.04-3.058 7.44-4.75 2.4-1.69 4.71-3.476 6.94-5.375 2.23-1.9 4.36-3.908 6.41-6 2.042-2.093 3.99-4.26 5.84-6.53 1.85-2.274 3.612-4.627 5.25-7.064 1.64-2.44 3.15-4.974 4.562-7.564 1.412-2.59 2.732-5.24 3.905-7.97 1.173-2.727 2.204-5.523 3.124-8.375.92-2.85 1.725-5.756 2.378-8.718.655-2.963 1.16-5.974 1.533-9.033.372-3.06.61-6.17.687-9.312-.08 4.35-.37 8.64-.874 12.876-.503 4.235-1.22 8.406-2.125 12.5s-1.993 8.126-3.28 12.064c-1.29 3.94-2.76 7.803-4.407 11.563-1.648 3.76-3.48 7.41-5.468 10.97-1.99 3.56-4.16 7.033-6.47 10.374-2.31 3.34-4.766 6.553-7.375 9.653-2.61 3.1-5.363 6.067-8.25 8.905-2.887 2.84-5.918 5.54-9.063 8.092-3.145 2.556-6.4 4.966-9.78 7.22-3.384 2.252-6.87 4.35-10.47 6.28-3.6 1.93-7.3 3.696-11.094 5.28-3.794 1.586-7.688 3-11.657 4.22-3.97 1.22-8.004 2.26-12.127 3.094-4.122.832-8.337 1.445-12.593 1.873-4.254.426-8.57.655-12.94.655-4.36 0-8.68-.23-12.933-.656-4.252-.43-8.442-1.045-12.562-1.877-4.12-.833-8.158-1.876-12.124-3.094-3.965-1.22-7.864-2.603-11.655-4.19-3.792-1.58-7.497-3.35-11.094-5.28-3.6-1.924-7.09-4.03-10.47-6.28-3.38-2.25-6.64-4.633-9.78-7.19-3.146-2.55-6.18-5.26-9.064-8.09-2.886-2.833-5.61-5.81-8.22-8.905-2.607-3.093-5.094-6.32-7.404-9.654-2.31-3.337-4.447-6.788-6.44-10.345-1.99-3.556-3.816-7.213-5.467-10.97-1.65-3.755-3.147-7.6-4.437-11.53-1.29-3.933-2.37-7.97-3.28-12.06-.91-4.094-1.62-8.24-2.125-12.47-.506-4.23-.82-8.53-.906-12.876.08 3.18.305 6.313.688 9.406.384 3.094.924 6.132 1.595 9.125.67 2.992 1.492 5.932 2.436 8.81.947 2.88 2.018 5.72 3.22 8.47 1.204 2.75 2.523 5.42 3.97 8.03 1.447 2.61 3.01 5.14 4.687 7.595 1.678 2.45 3.485 4.84 5.376 7.124 1.892 2.282 3.877 4.465 5.97 6.562.55.667 1.164 1.28 1.843 1.813.68.53 1.432 1 2.217 1.375.786.378 1.6.647 2.47.845.87.2 1.786.312 2.718.312 1.658 0 3.22-.33 4.657-.937 1.437-.605 2.76-1.474 3.845-2.56 1.086-1.085 1.955-2.41 2.562-3.843.606-1.436.936-3 .936-4.657 0-.754-.086-1.476-.22-2.19-.03-.167-.055-.335-.092-.5-.28-1.435-.506-2.9-.656-4.375-.164-1.613-.25-3.218-.25-4.875 0-1.656.086-3.29.25-4.906.164-1.616.4-3.22.72-4.78.32-1.566.72-3.095 1.187-4.598.467-1.502 1.017-2.97 1.625-4.405.606-1.437 1.26-2.828 2-4.19.737-1.36 1.542-2.69 2.405-3.967.86-1.277 1.8-2.534 2.78-3.72.977-1.184 2.007-2.29 3.093-3.374 1.086-1.082 2.22-2.112 3.406-3.09 1.186-.98 2.41-1.92 3.69-2.78 1.276-.864 2.61-1.67 3.97-2.407 1.36-.74 2.75-1.423 4.186-2.03 1.435-.607 2.903-1.126 4.406-1.593 1.503-.47 3.03-.87 4.594-1.19 1.562-.316 3.167-.552 4.78-.716 1.615-.16 3.25-.25 4.907-.25z" transform="matrix(.875 0 0 .875 254 -420)" clip-path="url(#l)" fill="#fce268" fill-opacity=".533" filter="url(#m)"/><path d="M-368 416v400H80V416h-448zm224.03 64c4.367 0 8.686.23 12.94.656 4.252.427 8.44 1.042 12.56 1.875 4.12.84 8.16 1.88 12.126 3.1 3.966 1.22 7.865 2.64 11.656 4.22 3.792 1.58 7.498 3.32 11.094 5.25 3.597 1.93 7.09 4.03 10.47 6.28 3.38 2.25 6.636 4.67 9.78 7.22 3.144 2.55 6.176 5.26 9.063 8.09 2.88 2.84 5.64 5.81 8.25 8.91 2.6 3.098 5.06 6.32 7.37 9.658 2.31 3.338 4.442 6.788 6.432 10.345 1.99 3.557 3.82 7.21 5.47 10.968s3.146 7.598 4.437 11.533c1.29 3.932 2.372 7.97 3.28 12.06.91 4.09 1.62 8.24 2.126 12.47.506 4.226.822 8.526.906 12.872-.08-3.18-.305-6.312-.69-9.405-.382-3.094-.92-6.133-1.592-9.126-.67-2.995-1.493-5.934-2.44-8.814-.942-2.88-2.013-5.72-3.22-8.47-1.2-2.75-2.52-5.423-3.965-8.03-1.446-2.61-3.01-5.14-4.687-7.595-1.674-2.453-3.48-4.843-5.373-7.125-1.89-2.284-3.876-4.466-5.968-6.564-.55-.667-1.166-1.28-1.845-1.813-.68-.53-1.434-.996-2.22-1.373-.786-.377-1.6-.645-2.47-.844-.87-.2-1.786-.313-2.72-.313-1.654 0-3.22.334-4.654.94s-2.757 1.477-3.842 2.56c-1.087 1.09-1.957 2.41-2.564 3.847-.607 1.435-.94 3-.94 4.655 0 .754.09 1.475.22 2.19.03.166.057.334.095.5.28 1.434.506 2.898.656 4.374.167 1.61.25 3.215.25 4.872s-.083 3.29-.25 4.907c-.16 1.614-.396 3.22-.716 4.78-.32 1.564-.72 3.092-1.187 4.595-.468 1.504-1.02 2.97-1.626 4.407-.606 1.435-1.26 2.827-2 4.187-.74 1.36-1.543 2.693-2.405 3.97-.866 1.276-1.806 2.533-2.78 3.72-.98 1.184-2.01 2.287-3.098 3.373-1.09 1.09-2.224 2.12-3.41 3.098-1.185.98-2.41 1.92-3.687 2.78-1.278.866-2.61 1.67-3.97 2.41-1.36.738-2.75 1.424-4.187 2.03-1.438.608-2.905 1.127-4.408 1.595-1.504.468-3.03.868-4.594 1.188-1.563.32-3.17.556-4.78.72-.55.055-1.104.087-1.657.125-.27-.02-.54-.05-.81-.064-1.564-.108-3.097-.357-4.565-.75s-2.876-.94-4.22-1.594c-1.345-.652-2.62-1.4-3.81-2.282-1.196-.88-2.304-1.888-3.316-2.968-1.01-1.08-1.918-2.25-2.72-3.5s-1.5-2.577-2.063-3.97c-.563-1.39-1.016-2.838-1.31-4.343-.3-1.506-.44-3.07-.44-4.657 0-2.133.216-4.15.625-6.033.44-1.105.862-2.23 1.22-3.375.465-1.502.835-3.03 1.154-4.592.32-1.565.587-3.17.75-4.784.1-.98.148-1.95.19-2.938.03-.647.056-1.29.06-1.94 0-.83-.02-1.65-.06-2.47-.14-3.19-.582-6.316-1.314-9.315-.73-2.998-1.766-5.875-3.03-8.624-1.266-2.747-2.76-5.34-4.5-7.78-1.74-2.44-3.72-4.71-5.876-6.78-2.155-2.07-4.49-3.954-7-5.595-2.51-1.64-5.192-3.033-8-4.187s-5.767-2.05-8.813-2.658c-3.044-.606-6.18-.937-9.405-.937-1.667 0-3.31.09-4.937.25s-3.24.396-4.81.72c-2.98.3-5.92.746-8.81 1.312-2.894.566-5.74 1.243-8.532 2.063-2.793.82-5.537 1.785-8.22 2.844-2.68 1.06-5.285 2.212-7.842 3.5-2.557 1.286-5.05 2.684-7.47 4.187-2.418 1.504-4.792 3.11-7.06 4.814-2.27 1.703-4.457 3.51-6.564 5.405-2.108 1.895-4.13 3.896-6.06 5.97-1.935 2.073-3.76 4.23-5.5 6.47-1.747 2.24-3.398 4.546-4.94 6.94-1.54 2.39-2.984 4.842-4.31 7.372-1.33 2.53-2.556 5.123-3.66 7.78-1.103 2.658-2.073 5.385-2.937 8.157-.865 2.77-1.606 5.592-2.22 8.47-.612 2.87-1.118 5.814-1.467 8.78.112-1.288.1-2.6.25-3.877.5-4.238 1.19-8.433 2.093-12.53.906-4.1 2.03-8.123 3.316-12.065 1.285-3.94 2.727-7.797 4.375-11.56 1.647-3.764 3.48-7.436 5.468-11 1.99-3.564 4.16-7.03 6.47-10.375 2.308-3.345 4.766-6.554 7.374-9.658 2.61-3.104 5.368-6.097 8.25-8.938 2.89-2.84 5.92-5.538 9.068-8.097 3.145-2.56 6.398-4.963 9.78-7.22 3.384-2.254 6.87-4.38 10.47-6.31 3.6-1.933 7.298-3.695 11.094-5.282 3.795-1.586 7.686-2.997 11.656-4.22 3.97-1.22 8.03-2.257 12.156-3.092 4.127-.834 8.338-1.446 12.596-1.874 4.258-.43 8.566-.656 12.937-.656zm-32 128.063c.19 0 .376.003.564 0 1.383.27 2.712.658 4 1.156 1.288.49 2.548 1.1 3.72 1.81 1.17.7 2.25 1.49 3.28 2.37 1.03.883 2.006 1.86 2.875 2.904.86 1.045 1.65 2.16 2.34 3.343.68 1.184 1.27 2.452 1.75 3.75.48 1.3.84 2.64 1.09 4.032.25 1.39.372 2.82.372 4.28 0 2.474-.33 4.85-.937 7.094-.867 2.3-1.56 4.674-2.063 7.127-.502 2.453-.82 4.988-.935 7.563v.03c-.034.724-.064 1.452-.064 2.19v.246c.004.74.025 1.48.063 2.216.04.9.096 1.8.186 2.687.16 1.53.424 3.048.72 4.53.018.085.017.17.03.25.32 1.566.69 3.094 1.16 4.597.467 1.504 1.017 2.97 1.624 4.407.61 1.438 1.263 2.83 2 4.19.74 1.36 1.576 2.693 2.44 3.97.863 1.276 1.772 2.533 2.75 3.72.98 1.184 2.01 2.287 3.094 3.373 1.086 1.086 2.22 2.116 3.407 3.094 1.186.978 2.41 1.92 3.688 2.78 1.28.864 2.61 1.67 3.97 2.407 1.36.74 2.75 1.426 4.19 2.034 1.434.606 2.902 1.125 4.405 1.592 1.504.466 3.03.866 4.595 1.186 1.56.32 3.166.556 4.78.72 1.633.08 3.253.25 4.906.25 1.656 0 3.277-.17 4.91-.25 3.12-.16 6.217-.46 9.25-.907 3.04-.45 6.004-1.057 8.94-1.78 2.936-.726 5.833-1.577 8.656-2.564 2.824-.987 5.587-2.11 8.282-3.344 2.695-1.236 5.32-2.59 7.874-4.063 2.555-1.47 5.04-3.058 7.44-4.75 2.4-1.69 4.71-3.476 6.94-5.375 2.23-1.9 4.36-3.908 6.41-6 2.042-2.093 3.99-4.26 5.84-6.53 1.85-2.274 3.612-4.627 5.25-7.064 1.64-2.44 3.15-4.974 4.562-7.564 1.412-2.59 2.732-5.24 3.905-7.97 1.173-2.727 2.204-5.523 3.124-8.375.92-2.85 1.725-5.756 2.378-8.718.655-2.963 1.16-5.974 1.533-9.033.372-3.06.61-6.17.687-9.312-.08 4.35-.37 8.64-.874 12.876-.503 4.235-1.22 8.406-2.125 12.5s-1.993 8.126-3.28 12.064c-1.29 3.94-2.76 7.803-4.407 11.563-1.648 3.76-3.48 7.41-5.468 10.97-1.99 3.56-4.16 7.033-6.47 10.374-2.31 3.34-4.766 6.553-7.375 9.653-2.61 3.1-5.363 6.067-8.25 8.905-2.887 2.84-5.918 5.54-9.063 8.092-3.145 2.556-6.4 4.966-9.78 7.22-3.384 2.252-6.87 4.35-10.47 6.28-3.6 1.93-7.3 3.696-11.094 5.28-3.794 1.586-7.688 3-11.657 4.22-3.97 1.22-8.004 2.26-12.127 3.094-4.122.832-8.337 1.445-12.593 1.873-4.254.426-8.57.655-12.94.655-4.36 0-8.68-.23-12.933-.656-4.252-.43-8.442-1.045-12.562-1.877-4.12-.833-8.158-1.876-12.124-3.094-3.965-1.22-7.864-2.603-11.655-4.19-3.792-1.58-7.497-3.35-11.094-5.28-3.6-1.924-7.09-4.03-10.47-6.28-3.38-2.25-6.64-4.633-9.78-7.19-3.146-2.55-6.18-5.26-9.064-8.09-2.886-2.833-5.61-5.81-8.22-8.905-2.607-3.093-5.094-6.32-7.404-9.654-2.31-3.337-4.447-6.788-6.44-10.345-1.99-3.556-3.816-7.213-5.467-10.97-1.65-3.755-3.147-7.6-4.437-11.53-1.29-3.933-2.37-7.97-3.28-12.06-.91-4.094-1.62-8.24-2.125-12.47-.506-4.23-.82-8.53-.906-12.876.08 3.18.305 6.313.688 9.406.384 3.094.924 6.132 1.595 9.125.67 2.992 1.492 5.932 2.436 8.81.947 2.88 2.018 5.72 3.22 8.47 1.204 2.75 2.523 5.42 3.97 8.03 1.447 2.61 3.01 5.14 4.687 7.595 1.678 2.45 3.485 4.84 5.376 7.124 1.892 2.282 3.877 4.465 5.97 6.562.55.667 1.164 1.28 1.843 1.813.68.53 1.432 1 2.217 1.375.786.378 1.6.647 2.47.845.87.2 1.786.312 2.718.312 1.658 0 3.22-.33 4.657-.937 1.437-.605 2.76-1.474 3.845-2.56 1.086-1.085 1.955-2.41 2.562-3.843.606-1.436.936-3 .936-4.657 0-.754-.086-1.476-.22-2.19-.03-.167-.055-.335-.092-.5-.28-1.435-.506-2.9-.656-4.375-.164-1.613-.25-3.218-.25-4.875 0-1.656.086-3.29.25-4.906.164-1.616.4-3.22.72-4.78.32-1.566.72-3.095 1.187-4.598.467-1.502 1.017-2.97 1.625-4.405.606-1.437 1.26-2.828 2-4.19.737-1.36 1.542-2.69 2.405-3.967.86-1.277 1.8-2.534 2.78-3.72.977-1.184 2.007-2.29 3.093-3.374 1.086-1.082 2.22-2.112 3.406-3.09 1.186-.98 2.41-1.92 3.69-2.78 1.276-.864 2.61-1.67 3.97-2.407 1.36-.74 2.75-1.423 4.186-2.03 1.435-.607 2.903-1.126 4.406-1.593 1.503-.47 3.03-.87 4.594-1.19 1.562-.316 3.167-.552 4.78-.716 1.615-.16 3.25-.25 4.907-.25z" transform="matrix(.875 0 0 .875 254 -420)" clip-path="url(#n)" fill="#fce268" fill-opacity=".533" filter="url(#o)"/></svg>